<svg id="Layer_1" data-name="Layer 1" xmlns="http://www.w3.org/2000/svg" xmlns:xlink="http://www.w3.org/1999/xlink" viewBox="0 0 1756.15 589.84"><defs><style>.cls-1{fill:none;}.cls-2{fill:url(#radial-gradient);}.cls-3{fill:url(#radial-gradient-2);}.cls-4{fill:url(#radial-gradient-3);}.cls-5{fill:url(#radial-gradient-4);}.cls-6{fill:url(#radial-gradient-5);}.cls-7{fill:url(#radial-gradient-6);}.cls-8{fill:url(#radial-gradient-7);}.cls-9{fill:url(#radial-gradient-8);}.cls-10{fill:url(#radial-gradient-9);}.cls-11{fill:url(#radial-gradient-10);}.cls-12{fill:url(#radial-gradient-11);}.cls-13{fill:url(#radial-gradient-12);}.cls-14{fill:url(#radial-gradient-13);}.cls-15{fill:url(#radial-gradient-14);}.cls-16{fill:url(#radial-gradient-15);}.cls-17{fill:url(#radial-gradient-16);}.cls-18{fill:url(#radial-gradient-17);}.cls-19{fill:url(#radial-gradient-18);}.cls-20{fill:url(#radial-gradient-19);}.cls-21{fill:url(#radial-gradient-20);}.cls-22{fill:url(#radial-gradient-21);}.cls-23{fill:url(#radial-gradient-22);}.cls-24{fill:url(#radial-gradient-23);}.cls-25{fill:url(#radial-gradient-24);}.cls-26{fill:url(#radial-gradient-25);}.cls-27{fill:url(#radial-gradient-26);}.cls-28{fill:url(#radial-gradient-27);}.cls-29{fill:url(#radial-gradient-28);}.cls-30{fill:url(#radial-gradient-29);}.cls-31{fill:url(#radial-gradient-30);}.cls-32{fill:url(#radial-gradient-31);}.cls-33{fill:url(#radial-gradient-32);}.cls-34{fill:url(#radial-gradient-33);}.cls-35{fill:url(#radial-gradient-34);}.cls-36{fill:url(#radial-gradient-35);}.cls-37{fill:url(#radial-gradient-36);}.cls-38{fill:url(#radial-gradient-37);}.cls-39{fill:url(#radial-gradient-38);}.cls-40{fill:url(#radial-gradient-39);}.cls-41{fill:url(#radial-gradient-40);}.cls-42{fill:url(#radial-gradient-41);}.cls-43{fill:url(#radial-gradient-42);}.cls-44{fill:url(#radial-gradient-43);}.cls-45{fill:url(#radial-gradient-44);}.cls-46{fill:url(#radial-gradient-45);}.cls-47{fill:url(#radial-gradient-46);}.cls-48{fill:url(#radial-gradient-47);}.cls-49{fill:url(#radial-gradient-48);}.cls-50{fill:url(#radial-gradient-49);}.cls-51{fill:url(#radial-gradient-50);}.cls-52{fill:url(#radial-gradient-51);}.cls-53{fill:url(#radial-gradient-52);}.cls-54{fill:url(#radial-gradient-53);}.cls-55{fill:url(#radial-gradient-54);}.cls-56{fill:#e1c982;}.cls-57{fill:url(#radial-gradient-55);}.cls-58{fill:url(#radial-gradient-56);}.cls-59{fill:url(#radial-gradient-57);}.cls-60{fill:url(#radial-gradient-58);}.cls-61{fill:url(#radial-gradient-59);}.cls-62{fill:url(#radial-gradient-60);}.cls-63{fill:url(#radial-gradient-61);}.cls-64{fill:url(#radial-gradient-62);}.cls-65{fill:url(#radial-gradient-63);}.cls-66{fill:url(#radial-gradient-64);}.cls-67{fill:url(#radial-gradient-65);}.cls-68{fill:url(#radial-gradient-66);}.cls-69{fill:url(#radial-gradient-67);}.cls-70{fill:url(#radial-gradient-68);}.cls-71{fill:url(#radial-gradient-69);}.cls-72{fill:url(#radial-gradient-70);}.cls-73{fill:url(#radial-gradient-71);}.cls-74{fill:url(#radial-gradient-72);}.cls-75{fill:url(#radial-gradient-73);}.cls-76{fill:url(#radial-gradient-74);}.cls-77{fill:url(#radial-gradient-75);}.cls-78{fill:url(#radial-gradient-76);}.cls-79{fill:url(#radial-gradient-77);}.cls-80{fill:url(#radial-gradient-78);}.cls-81{fill:url(#radial-gradient-79);}.cls-82{fill:url(#radial-gradient-80);}.cls-83{fill:url(#radial-gradient-81);}.cls-84{fill:url(#radial-gradient-82);}.cls-85{fill:url(#radial-gradient-83);}.cls-86{fill:url(#radial-gradient-84);}.cls-87{fill:url(#radial-gradient-85);}.cls-88{fill:url(#radial-gradient-86);}.cls-89{fill:url(#radial-gradient-87);}.cls-90{fill:url(#radial-gradient-88);}.cls-91{fill:url(#radial-gradient-89);}.cls-92{fill:url(#radial-gradient-90);}.cls-93{fill:url(#radial-gradient-91);}.cls-94{fill:url(#radial-gradient-92);}.cls-95{fill:url(#radial-gradient-93);}.cls-96{fill:url(#radial-gradient-94);}.cls-97{fill:url(#radial-gradient-95);}.cls-98{fill:url(#radial-gradient-96);}.cls-99{fill:url(#radial-gradient-97);}.cls-100{fill:url(#radial-gradient-98);}.cls-101{fill:url(#radial-gradient-99);}.cls-102{fill:url(#radial-gradient-100);}.cls-103{fill:url(#radial-gradient-101);}.cls-104{fill:url(#radial-gradient-102);}.cls-105{fill:url(#radial-gradient-103);}.cls-106{fill:url(#radial-gradient-104);}.cls-107{fill:url(#radial-gradient-105);}.cls-108{fill:url(#radial-gradient-106);}.cls-109{fill:url(#radial-gradient-107);}.cls-110{fill:url(#radial-gradient-108);}.cls-111{fill:url(#radial-gradient-109);}.cls-112{fill:url(#radial-gradient-110);}.cls-113{fill:url(#radial-gradient-111);}.cls-114{fill:url(#radial-gradient-112);}.cls-115{fill:url(#radial-gradient-113);}.cls-116{fill:url(#radial-gradient-114);}.cls-117{fill:url(#radial-gradient-115);}.cls-118{fill:url(#radial-gradient-116);}.cls-119{fill:url(#radial-gradient-117);}.cls-120{fill:url(#radial-gradient-118);}.cls-121{fill:url(#radial-gradient-119);}.cls-122{fill:url(#radial-gradient-120);}.cls-123{fill:url(#radial-gradient-121);}.cls-124{fill:url(#radial-gradient-122);}.cls-125{fill:url(#radial-gradient-123);}.cls-126{fill:url(#radial-gradient-124);}.cls-127{fill:url(#radial-gradient-125);}.cls-128{fill:url(#radial-gradient-126);}.cls-129{fill:url(#radial-gradient-127);}.cls-130{fill:url(#radial-gradient-128);}.cls-131{fill:url(#radial-gradient-129);}.cls-132{fill:url(#radial-gradient-130);}.cls-133,.cls-145{fill:#fff;}.cls-133{stroke:#c4a006;stroke-width:0.95px;}.cls-134{fill:url(#radial-gradient-131);}.cls-135,.cls-136,.cls-137,.cls-138,.cls-139,.cls-140,.cls-141,.cls-142,.cls-143,.cls-144{stroke:#dbe0ee;stroke-width:0.15px;}.cls-135{fill:url(#radial-gradient-132);}.cls-136{fill:url(#radial-gradient-133);}.cls-137{fill:url(#radial-gradient-134);}.cls-138{fill:url(#radial-gradient-135);}.cls-139{fill:url(#radial-gradient-136);}.cls-140{fill:url(#radial-gradient-137);}.cls-141{fill:url(#radial-gradient-138);}.cls-142{fill:#90a6ce;}.cls-143{fill:#99add2;}.cls-144{fill:#bcc8e1;}.cls-145{stroke:#005699;stroke-width:2px;}.cls-146{fill:#c4a006;}.cls-147{opacity:0.27;isolation:isolate;fill:url(#radial-gradient-139);}.cls-148{fill:#15375f;}.cls-149{fill:#2775ae;}</style><radialGradient id="radial-gradient" cx="238.28" cy="950.73" r="523.52" gradientTransform="matrix(1, 0, 0, -1, 0, 1362)" gradientUnits="userSpaceOnUse"><stop offset="0" stop-color="#e7d298"/><stop offset="1" stop-color="#c4a006"/></radialGradient><radialGradient id="radial-gradient-2" cx="238.27" cy="950.71" r="523.48" xlink:href="#radial-gradient"/><radialGradient id="radial-gradient-3" cx="238.28" cy="950.73" r="523.52" xlink:href="#radial-gradient"/><radialGradient id="radial-gradient-4" cx="238.27" cy="950.71" r="523.48" xlink:href="#radial-gradient"/><radialGradient id="radial-gradient-5" cx="238.28" cy="950.71" r="523.46" xlink:href="#radial-gradient"/><radialGradient id="radial-gradient-6" cx="238.27" cy="950.71" r="523.48" xlink:href="#radial-gradient"/><radialGradient id="radial-gradient-7" cx="238.27" cy="950.71" r="523.46" xlink:href="#radial-gradient"/><radialGradient id="radial-gradient-8" cx="238.27" cy="950.71" r="523.48" xlink:href="#radial-gradient"/><radialGradient id="radial-gradient-9" cx="238.27" cy="950.71" r="523.46" xlink:href="#radial-gradient"/><radialGradient id="radial-gradient-10" cx="238.27" cy="950.71" r="523.48" xlink:href="#radial-gradient"/><radialGradient id="radial-gradient-11" cx="238.29" cy="950.73" r="523.49" xlink:href="#radial-gradient"/><radialGradient id="radial-gradient-12" cx="238.27" cy="950.71" r="523.48" xlink:href="#radial-gradient"/><radialGradient id="radial-gradient-13" cx="238.29" cy="950.73" r="523.49" xlink:href="#radial-gradient"/><radialGradient id="radial-gradient-14" cx="238.28" cy="950.73" r="523.5" xlink:href="#radial-gradient"/><radialGradient id="radial-gradient-15" cx="238.29" cy="950.73" r="523.49" xlink:href="#radial-gradient"/><radialGradient id="radial-gradient-16" cx="238.28" cy="950.73" r="523.49" xlink:href="#radial-gradient"/><radialGradient id="radial-gradient-17" cx="238.27" cy="950.74" r="523.5" xlink:href="#radial-gradient"/><radialGradient id="radial-gradient-18" cx="238.28" cy="950.73" r="523.5" xlink:href="#radial-gradient"/><radialGradient id="radial-gradient-19" cx="238.27" cy="950.74" r="523.5" xlink:href="#radial-gradient"/><radialGradient id="radial-gradient-20" cx="238.29" cy="950.71" r="523.46" xlink:href="#radial-gradient"/><radialGradient id="radial-gradient-21" cx="238.27" cy="950.74" r="523.5" xlink:href="#radial-gradient"/><radialGradient id="radial-gradient-22" cx="238.29" cy="950.71" r="523.46" xlink:href="#radial-gradient"/><radialGradient id="radial-gradient-23" cx="238.26" cy="950.72" r="523.5" xlink:href="#radial-gradient"/><radialGradient id="radial-gradient-24" cx="238.29" cy="950.71" r="523.46" xlink:href="#radial-gradient"/><radialGradient id="radial-gradient-25" cx="238.25" cy="950.72" r="523.5" xlink:href="#radial-gradient"/><radialGradient id="radial-gradient-26" cx="238.28" cy="950.71" r="523.48" gradientTransform="matrix(1, 0, 0, -1, 0, 1362)" gradientUnits="userSpaceOnUse"><stop offset="0" stop-color="#efe0ba"/><stop offset="1" stop-color="#c4a006"/></radialGradient><radialGradient id="radial-gradient-27" cx="238.27" cy="950.72" r="523.5" xlink:href="#radial-gradient-26"/><radialGradient id="radial-gradient-28" cx="238.27" cy="950.71" r="523.48" xlink:href="#radial-gradient"/><radialGradient id="radial-gradient-29" cx="238.28" cy="950.71" r="523.48" xlink:href="#radial-gradient-26"/><radialGradient id="radial-gradient-30" cx="238.27" cy="950.7" r="523.46" xlink:href="#radial-gradient"/><radialGradient id="radial-gradient-31" cx="238.28" cy="950.71" r="523.48" xlink:href="#radial-gradient-26"/><radialGradient id="radial-gradient-32" cx="238.27" cy="950.71" r="523.46" xlink:href="#radial-gradient"/><radialGradient id="radial-gradient-33" cx="238.28" cy="950.71" r="523.48" xlink:href="#radial-gradient-26"/><radialGradient id="radial-gradient-34" cx="238.27" cy="950.72" r="523.49" xlink:href="#radial-gradient"/><radialGradient id="radial-gradient-35" cx="238.28" cy="950.72" r="523.49" xlink:href="#radial-gradient-26"/><radialGradient id="radial-gradient-36" cx="238.27" cy="950.72" r="523.48" xlink:href="#radial-gradient"/><radialGradient id="radial-gradient-37" cx="238.28" cy="950.72" r="523.48" xlink:href="#radial-gradient-26"/><radialGradient id="radial-gradient-38" cx="238.29" cy="950.65" r="523.37" xlink:href="#radial-gradient"/><radialGradient id="radial-gradient-39" cx="238.29" cy="950.66" r="523.39" xlink:href="#radial-gradient"/><radialGradient id="radial-gradient-40" cx="238.29" cy="950.66" r="523.39" xlink:href="#radial-gradient-26"/><radialGradient id="radial-gradient-41" cx="238.29" cy="950.73" r="523.49" xlink:href="#radial-gradient"/><radialGradient id="radial-gradient-42" cx="238.28" cy="950.72" r="523.48" xlink:href="#radial-gradient-26"/><radialGradient id="radial-gradient-43" cx="238.29" cy="950.79" r="523.56" xlink:href="#radial-gradient"/><radialGradient id="radial-gradient-44" cx="238.28" cy="950.77" r="523.55" xlink:href="#radial-gradient-26"/><radialGradient id="radial-gradient-45" cx="238.28" cy="950.73" r="523.5" xlink:href="#radial-gradient"/><radialGradient id="radial-gradient-46" cx="238.28" cy="950.71" r="523.48" xlink:href="#radial-gradient-26"/><radialGradient id="radial-gradient-47" cx="238.28" cy="950.74" r="523.5" xlink:href="#radial-gradient"/><radialGradient id="radial-gradient-48" cx="238.28" cy="950.72" r="523.48" xlink:href="#radial-gradient-26"/><radialGradient id="radial-gradient-49" cx="238.27" cy="950.74" r="523.5" xlink:href="#radial-gradient"/><radialGradient id="radial-gradient-50" cx="238.27" cy="950.71" r="523.48" xlink:href="#radial-gradient-26"/><radialGradient id="radial-gradient-51" cx="238.27" cy="950.74" r="523.5" xlink:href="#radial-gradient"/><radialGradient id="radial-gradient-52" cx="238.28" cy="950.71" r="523.48" xlink:href="#radial-gradient-26"/><radialGradient id="radial-gradient-53" cx="238.29" cy="950.7" r="523.46" xlink:href="#radial-gradient"/><radialGradient id="radial-gradient-54" cx="238.28" cy="950.71" r="523.48" xlink:href="#radial-gradient-26"/><radialGradient id="radial-gradient-55" cx="238.28" cy="950.72" r="523.49" xlink:href="#radial-gradient"/><radialGradient id="radial-gradient-56" cx="238.28" cy="950.72" r="523.49" xlink:href="#radial-gradient"/><radialGradient id="radial-gradient-57" cx="238.28" cy="950.72" r="523.5" xlink:href="#radial-gradient"/><radialGradient id="radial-gradient-58" cx="238.27" cy="950.71" r="523.48" xlink:href="#radial-gradient"/><radialGradient id="radial-gradient-59" cx="238.29" cy="950.7" r="523.46" xlink:href="#radial-gradient"/><radialGradient id="radial-gradient-60" cx="238.26" cy="950.72" r="523.5" xlink:href="#radial-gradient"/><radialGradient id="radial-gradient-61" cx="238.29" cy="950.72" r="523.47" xlink:href="#radial-gradient"/><radialGradient id="radial-gradient-62" cx="238.28" cy="950.72" r="523.48" xlink:href="#radial-gradient"/><radialGradient id="radial-gradient-63" cx="238.24" cy="950.75" r="523.57" xlink:href="#radial-gradient"/><radialGradient id="radial-gradient-64" cx="238.24" cy="950.75" r="523.59" xlink:href="#radial-gradient"/><radialGradient id="radial-gradient-65" cx="238.28" cy="950.72" r="523.48" xlink:href="#radial-gradient"/><radialGradient id="radial-gradient-66" cx="238.27" cy="950.72" r="523.5" xlink:href="#radial-gradient"/><radialGradient id="radial-gradient-67" cx="238.28" cy="950.71" r="523.47" xlink:href="#radial-gradient-26"/><radialGradient id="radial-gradient-68" cx="238.28" cy="950.7" r="523.41" xlink:href="#radial-gradient-26"/><radialGradient id="radial-gradient-69" cx="238.28" cy="950.71" r="523.47" xlink:href="#radial-gradient-26"/><radialGradient id="radial-gradient-70" cx="238.27" cy="950.7" r="523.47" xlink:href="#radial-gradient-26"/><radialGradient id="radial-gradient-71" cx="238.28" cy="950.71" r="523.48" xlink:href="#radial-gradient-26"/><radialGradient id="radial-gradient-72" cx="238.28" cy="950.72" r="523.48" xlink:href="#radial-gradient"/><radialGradient id="radial-gradient-73" cx="238.28" cy="950.71" r="523.48" xlink:href="#radial-gradient-26"/><radialGradient id="radial-gradient-74" cx="238.28" cy="950.72" r="523.49" xlink:href="#radial-gradient"/><radialGradient id="radial-gradient-75" cx="238.28" cy="950.72" r="523.48" xlink:href="#radial-gradient-26"/><radialGradient id="radial-gradient-76" cx="238.28" cy="950.72" r="523.49" xlink:href="#radial-gradient"/><radialGradient id="radial-gradient-77" cx="238.28" cy="950.71" r="523.48" xlink:href="#radial-gradient-26"/><radialGradient id="radial-gradient-78" cx="238.28" cy="950.72" r="523.49" xlink:href="#radial-gradient"/><radialGradient id="radial-gradient-79" cx="238.28" cy="950.71" r="523.48" xlink:href="#radial-gradient-26"/><radialGradient id="radial-gradient-80" cx="238.28" cy="950.72" r="523.5" xlink:href="#radial-gradient"/><radialGradient id="radial-gradient-81" cx="238.28" cy="950.71" r="523.48" xlink:href="#radial-gradient-26"/><radialGradient id="radial-gradient-82" cx="238.28" cy="950.72" r="523.49" xlink:href="#radial-gradient"/><radialGradient id="radial-gradient-83" cx="238.28" cy="950.71" r="523.48" xlink:href="#radial-gradient-26"/><radialGradient id="radial-gradient-84" cx="238.28" cy="950.72" r="523.49" xlink:href="#radial-gradient"/><radialGradient id="radial-gradient-85" cx="238.28" cy="950.72" r="523.5" xlink:href="#radial-gradient"/><radialGradient id="radial-gradient-86" cx="238.28" cy="950.71" r="523.48" xlink:href="#radial-gradient-26"/><radialGradient id="radial-gradient-87" cx="238.28" cy="950.73" r="523.52" xlink:href="#radial-gradient"/><radialGradient id="radial-gradient-88" cx="238.28" cy="950.71" r="523.48" xlink:href="#radial-gradient-26"/><radialGradient id="radial-gradient-89" cx="238.28" cy="950.74" r="523.53" xlink:href="#radial-gradient"/><radialGradient id="radial-gradient-90" cx="238.28" cy="950.72" r="523.49" xlink:href="#radial-gradient-26"/><radialGradient id="radial-gradient-91" cx="238.27" cy="950.71" r="523.48" xlink:href="#radial-gradient"/><radialGradient id="radial-gradient-92" cx="238.28" cy="950.71" r="523.48" xlink:href="#radial-gradient-26"/><radialGradient id="radial-gradient-93" cx="238.28" cy="950.75" r="523.56" xlink:href="#radial-gradient"/><radialGradient id="radial-gradient-94" cx="238.28" cy="950.73" r="523.52" xlink:href="#radial-gradient"/><radialGradient id="radial-gradient-95" cx="238.28" cy="950.73" r="523.52" xlink:href="#radial-gradient-26"/><radialGradient id="radial-gradient-96" cx="238.29" cy="950.71" r="523.46" xlink:href="#radial-gradient"/><radialGradient id="radial-gradient-97" cx="238.28" cy="950.72" r="523.48" xlink:href="#radial-gradient-26"/><radialGradient id="radial-gradient-98" cx="238.25" cy="950.72" r="523.51" xlink:href="#radial-gradient"/><radialGradient id="radial-gradient-99" cx="238.27" cy="950.71" r="523.48" xlink:href="#radial-gradient-26"/><radialGradient id="radial-gradient-100" cx="238.25" cy="950.72" r="523.51" xlink:href="#radial-gradient"/><radialGradient id="radial-gradient-101" cx="238.27" cy="950.72" r="523.49" xlink:href="#radial-gradient-26"/><radialGradient id="radial-gradient-102" cx="238.29" cy="950.72" r="523.47" xlink:href="#radial-gradient"/><radialGradient id="radial-gradient-103" cx="238.28" cy="950.71" r="523.48" xlink:href="#radial-gradient-26"/><radialGradient id="radial-gradient-104" cx="238.29" cy="950.73" r="523.46" xlink:href="#radial-gradient"/><radialGradient id="radial-gradient-105" cx="238.28" cy="950.71" r="523.47" xlink:href="#radial-gradient-26"/><radialGradient id="radial-gradient-106" cx="238.2" cy="950.7" r="523.61" xlink:href="#radial-gradient"/><radialGradient id="radial-gradient-107" cx="238.2" cy="950.69" r="523.61" xlink:href="#radial-gradient-26"/><radialGradient id="radial-gradient-108" cx="238.28" cy="950.72" r="523.48" xlink:href="#radial-gradient"/><radialGradient id="radial-gradient-109" cx="238.27" cy="950.71" r="523.48" xlink:href="#radial-gradient-26"/><radialGradient id="radial-gradient-110" cx="238.28" cy="950.72" r="523.48" xlink:href="#radial-gradient"/><radialGradient id="radial-gradient-111" cx="238.28" cy="950.71" r="523.48" xlink:href="#radial-gradient-26"/><radialGradient id="radial-gradient-112" cx="238.27" cy="950.74" r="523.49" xlink:href="#radial-gradient"/><radialGradient id="radial-gradient-113" cx="238.27" cy="950.73" r="523.51" xlink:href="#radial-gradient"/><radialGradient id="radial-gradient-114" cx="238.26" cy="950.73" r="523.51" xlink:href="#radial-gradient-26"/><radialGradient id="radial-gradient-115" cx="238.27" cy="950.72" r="523.5" xlink:href="#radial-gradient"/><radialGradient id="radial-gradient-116" cx="238.28" cy="950.71" r="523.48" xlink:href="#radial-gradient-26"/><radialGradient id="radial-gradient-117" cx="238.28" cy="950.72" r="523.49" xlink:href="#radial-gradient"/><radialGradient id="radial-gradient-118" cx="238.28" cy="950.72" r="523.47" xlink:href="#radial-gradient-26"/><radialGradient id="radial-gradient-119" cx="238.27" cy="950.72" r="523.5" xlink:href="#radial-gradient"/><radialGradient id="radial-gradient-120" cx="238.28" cy="950.72" r="523.48" xlink:href="#radial-gradient-26"/><radialGradient id="radial-gradient-121" cx="238.27" cy="950.73" r="523.51" xlink:href="#radial-gradient"/><radialGradient id="radial-gradient-122" cx="238.26" cy="950.72" r="523.53" xlink:href="#radial-gradient"/><radialGradient id="radial-gradient-123" cx="238.26" cy="950.72" r="523.51" xlink:href="#radial-gradient-26"/><radialGradient id="radial-gradient-124" cx="238.27" cy="950.72" r="523.51" xlink:href="#radial-gradient"/><radialGradient id="radial-gradient-125" cx="238.28" cy="950.71" r="523.48" xlink:href="#radial-gradient-26"/><radialGradient id="radial-gradient-126" cx="238.27" cy="950.72" r="523.51" xlink:href="#radial-gradient"/><radialGradient id="radial-gradient-127" cx="238.28" cy="950.71" r="523.48" xlink:href="#radial-gradient-26"/><radialGradient id="radial-gradient-128" cx="238.3" cy="950.71" r="523.41" xlink:href="#radial-gradient"/><radialGradient id="radial-gradient-129" cx="238.29" cy="950.72" r="523.43" xlink:href="#radial-gradient"/><radialGradient id="radial-gradient-130" cx="238.3" cy="950.71" r="523.41" xlink:href="#radial-gradient-26"/><radialGradient id="radial-gradient-131" cx="320.12" cy="800.78" r="252.48" gradientTransform="matrix(1, 0, 0, -1, 0, 1362)" gradientUnits="userSpaceOnUse"><stop offset="0" stop-color="#0fb3e8"/><stop offset="0.65" stop-color="#006faf"/><stop offset="1" stop-color="#005699"/></radialGradient><radialGradient id="radial-gradient-132" cx="326.19" cy="801.84" r="280.11" gradientTransform="matrix(1, 0, 0, -1, 0, 1362)" gradientUnits="userSpaceOnUse"><stop offset="0" stop-color="#cdd5e9"/><stop offset="0.11" stop-color="#c0cbe3"/><stop offset="0.5" stop-color="#96abd1"/><stop offset="0.81" stop-color="#7e99c6"/><stop offset="1" stop-color="#7693c2"/></radialGradient><radialGradient id="radial-gradient-133" cx="326.19" cy="801.85" r="280.11" xlink:href="#radial-gradient-132"/><radialGradient id="radial-gradient-134" cx="326.19" cy="801.84" r="280.1" xlink:href="#radial-gradient-132"/><radialGradient id="radial-gradient-135" cx="326.19" cy="801.84" r="280.11" xlink:href="#radial-gradient-132"/><radialGradient id="radial-gradient-136" cx="326.2" cy="801.84" r="280.1" xlink:href="#radial-gradient-132"/><radialGradient id="radial-gradient-137" cx="326.19" cy="796.86" r="277.67" xlink:href="#radial-gradient-132"/><radialGradient id="radial-gradient-138" cx="326.19" cy="801.84" r="280.11" xlink:href="#radial-gradient-132"/><radialGradient id="radial-gradient-139" cx="392.14" cy="735.85" fx="352.44355009141714" fy="633.1728206409448" r="179.7" gradientTransform="matrix(1, 0, 0, -1, -131.04, 997.27)" gradientUnits="userSpaceOnUse"><stop offset="0" stop-color="#0fb3e8"/><stop offset="0.24" stop-color="#148eb6"/><stop offset="0.77" stop-color="#1f3f4b"/><stop offset="1" stop-color="#231f20"/></radialGradient></defs><path class="cls-1" d="M479.85,795.88c1.76,5.46,3.12,12.48,8.75,14.91l3.46.94c7-1.83,13.17-5.75,18.95-9.5,5.85-4.74,13.38-10.94,15.15-17.9.2-5.16-3.85-8.54-7.61-11.61a200,200,0,0,0-42.46-22.83l-.71.48C474.4,765.69,477.53,780.62,479.85,795.88Z" transform="translate(-131.04 -364.73)"/><path class="cls-1" d="M574.1,683.86c5.1,2.62,11,6.63,16.72,4.36l3.11-1.79c3.11-5.29,4.71-11.2,6-17,.06-.48.14-1,.18-1.44.79-7.68,2.2-18.47-1.77-25.13-3.5-3.78-8.77-3.31-13.6-2.83-1.84.32-3.67.68-5.5,1.05a285.63,285.63,0,0,1-30.75,23.36C556.52,671.45,565.4,677.46,574.1,683.86Z" transform="translate(-131.04 -364.73)"/><path class="cls-1" d="M537.81,749.73c3.71,4.37,7.66,10.35,13.78,10.42l3.57-.45c5.39-4.08,9.4-9.57,13.08-14.89.12-.21.25-.41.36-.63,3.67-6.8,9.1-16.23,8-23.9-1.79-4.83-6.83-6.41-11.47-7.82a199.69,199.69,0,0,0-47.6-4.82c-.4.62-.81,1.24-1.22,1.85C521.25,724,529.84,736.55,537.81,749.73Z" transform="translate(-131.04 -364.73)"/><path class="cls-1" d="M243.9,669.64c-4.43,4.18-8.42,9.12-12.72,13.94-1.39,4.66-9.54,9.07-4.16,14a145.26,145.26,0,0,0,34.76,1.83,149.11,149.11,0,0,1-11.54-26Q247,671.58,243.9,669.64Z" transform="translate(-131.04 -364.73)"/><path class="cls-1" d="M484.49,743.75c6.8,4,14.86,6.27,22.91,9.1,4.86-.51,12,5.34,14.57-1.52A145.23,145.23,0,0,0,510.12,718,150.37,150.37,0,0,1,484.49,743.75Z" transform="translate(-131.04 -364.73)"/><path class="cls-1" d="M374.81,774.67c2,7.62,6.05,14.84,9.73,22.47,3.78,3.07,4.73,12.29,11.37,9.22a144.78,144.78,0,0,0,15.15-31.87,150.13,150.13,0,0,1-36.25.18Z" transform="translate(-131.04 -364.73)"/><path class="cls-1" d="M274.76,718.79c-3.9,6.72-6.11,14.61-8.88,22.52.51,4.85-5.33,12,1.53,14.56a145.27,145.27,0,0,0,32.94-11.68A150.74,150.74,0,0,1,274.76,718.79Z" transform="translate(-131.04 -364.73)"/><path class="cls-1" d="M333.7,807.85c-2.62,5.1-6.62,11-4.35,16.72l1.78,3.11c6.69,3.92,14.37,5.46,21.5,7,7.44.77,16.88,1.59,22.91-2,3.79-3.5,3.31-8.76,2.84-13.6a200.18,200.18,0,0,0-13.81-45.94l-2.09-.4C351.08,782.82,342.79,795.5,333.7,807.85Z" transform="translate(-131.04 -364.73)"/><path class="cls-1" d="M202.14,641c-5.7-.47-12.72-1.9-17.11,2.37l-2.2,2.84c-1.15,8.36.75,16.72,2.12,24.43,2.06,6.73,4.88,14.46,10,18.26,4.68,2.16,9.37-.29,13.64-2.58a204,204,0,0,0,27.92-21.33,286.32,286.32,0,0,1-30.62-23.09Z" transform="translate(-131.04 -364.73)"/><path class="cls-1" d="M222.43,712.86C217,714.61,210,716,207.53,721.6l-.94,3.46c2,7.79,6.63,14.51,10.71,20.84,4.63,5.69,10.53,12.49,17.1,14.15,5.15.21,8.54-3.85,11.61-7.6a199.93,199.93,0,0,0,22.62-42c-.48-.7-.95-1.41-1.42-2.12C252.16,707.49,237.46,710.57,222.43,712.86Z" transform="translate(-131.04 -364.73)"/><path class="cls-1" d="M257.93,677.67a143.77,143.77,0,0,0,268.4,0,285.1,285.1,0,0,1-268.4,0Z" transform="translate(-131.04 -364.73)"/><path class="cls-1" d="M408.25,816.44c-.47,5.71-1.9,12.73,2.37,17.11l2.83,2.2c7.26,1,14.53-.3,21.37-1.56,7.25-2.15,16.69-5,21-10.79,2.17-4.68-.29-9.37-2.58-13.64a200.44,200.44,0,0,0-30.42-37.24l-1.39.28C414.74,786.53,411.92,801.49,408.25,816.44Z" transform="translate(-131.04 -364.73)"/><path class="cls-1" d="M269,771.71c-4.37,3.71-10.34,7.67-10.42,13.79l.45,3.55c4.93,6.5,11.87,11,18.12,15.32,6.26,3.33,13.79,6.88,20.12,6,4.84-1.78,6.42-6.82,7.81-11.47a199.81,199.81,0,0,0,4.83-47.8c-.36-.24-.73-.47-1.09-.72C294.53,755.32,282.06,763.82,269,771.71Z" transform="translate(-131.04 -364.73)"/><path class="cls-1" d="M522.86,698.78c7.75,1.07,15.94.07,24.35-.41,4.29-2.32,13.17.33,12.87-7A147.1,147.1,0,0,0,541,669.28c-2.29,1.41-4.59,2.79-6.92,4.13A148.79,148.79,0,0,1,522.86,698.78Z" transform="translate(-131.04 -364.73)"/><path class="cls-1" d="M319.19,781c2.32,4.29-.33,13.16,7,12.87a146,146,0,0,0,26.09-23.53,148.64,148.64,0,0,1-33.46-13.82C317.7,764.25,318.71,772.5,319.19,781Z" transform="translate(-131.04 -364.73)"/><path class="cls-1" d="M450.57,787.12c4.68,1.4,9.08,9.55,14,4.17A144.4,144.4,0,0,0,466.4,756,148.53,148.53,0,0,1,432.94,770C437.68,776.34,444.24,781.47,450.57,787.12Z" transform="translate(-131.04 -364.73)"/><path class="cls-2" d="M182.36,661.06c.37,1.75.79,3.5,1.32,5.25.4,1.34.82,2.78,1.28,4.28-1.37-7.71-3.27-16.07-2.12-24.43l2.2-2.84c4.38-4.27,11.4-2.85,17.11-2.37l3.72.9a285.85,285.85,0,0,1-37.52-39.31l-.42,1c-8.76,13.27-22.36,16.59-36.84,16.12-.05,4.26-.06,9.38-.05,12.91,16.21-.94,33,4.62,40.4,21.23,1.5,3.93,2.91,7.9,4.19,11.92-.14-1.28-.3-2.55-.48-3.83Z" transform="translate(-131.04 -364.73)"/><path class="cls-3" d="M212.17,739.2c1,1.46,2.06,2.92,3.21,4.34l1.92,2.37c-4.08-6.33-8.68-13-10.71-20.84l.94-3.46c2.42-5.63,9.45-7,14.9-8.74,15-2.29,29.73-5.37,44.79-4.53q-2.87-4.35-5.43-8.9A145.23,145.23,0,0,1,227,697.61c-5.38-5,2.78-9.36,4.16-14,4.3-4.82,8.29-9.76,12.72-13.94-2.5-1.53-5-3.11-7.42-4.71a202.6,202.6,0,0,1-27.92,21.33c-4.28,2.29-9,4.74-13.64,2.58-5.08-3.79-7.9-11.53-10-18.26.16.9.31,1.8.45,2.68l-7,2.06c-.82-3.26-1.77-6.47-2.78-9.65a191.19,191.19,0,0,1,.85,25.66c-3,15.63-14.31,23.9-27.87,29,1.58,4,3.53,8.69,4.89,12,14.63-7.08,32.22-8.34,45.45,4.15,3.11,3.28,6.14,6.66,9.05,10.14-.71-1.31-1.44-2.62-2.2-3.91Z" transform="translate(-131.04 -364.73)"/><path class="cls-4" d="M185.41,673.27c-.14-.88-.29-1.78-.45-2.68-.46-1.49-.88-2.94-1.28-4.28-.53-1.75-1-3.5-1.32-5.25l-7.22.78c.18,1.28.34,2.55.48,3.83,1,3.18,2,6.39,2.78,9.65Z" transform="translate(-131.04 -364.73)"/><path class="cls-5" d="M185.41,673.27c-.14-.88-.29-1.78-.45-2.68-.46-1.49-.88-2.94-1.28-4.28-.53-1.75-1-3.5-1.32-5.25l-7.22.78c.18,1.28.34,2.55.48,3.83,1,3.18,2,6.39,2.78,9.65Z" transform="translate(-131.04 -364.73)"/><path class="cls-6" d="M268.74,799.56c1.51,1,3,1.91,4.65,2.78,1.18.64,2.44,1.33,3.76,2C270.9,800,264,795.55,259,789.05l-.45-3.55c.08-6.13,6.05-10.08,10.42-13.79,13.06-7.89,25.52-16.38,39.82-21.37q-4.35-2.93-8.48-6.14a145.44,145.44,0,0,1-32.94,11.68c-6.86-2.52-1-9.71-1.53-14.56,2.77-7.91,5-15.8,8.88-22.52q-3.21-4-6.13-8.33a199.93,199.93,0,0,1-22.62,42c-3.07,3.75-6.46,7.81-11.61,7.6-6.56-1.66-12.46-8.46-17.1-14.15.7,1.08,1.38,2.16,2,3.22l-5.69,4.58c-1.81-2.45-3.72-4.81-5.66-7.12a193.58,193.58,0,0,1,10.32,22.85c3.19,15.59-4.08,27.54-14.66,37.45,3,3.05,6.59,6.67,9.1,9.17,10.8-12.14,26.57-20,43.58-13.56q5.69,2.54,11.24,5.38-1.67-1.35-3.39-2.64Z" transform="translate(-131.04 -364.73)"/><path class="cls-7" d="M219.34,749.13c-.65-1.06-1.34-2.14-2-3.22l-1.92-2.37c-1.15-1.42-2.21-2.88-3.21-4.34l-6.38,3.48q1.14,1.94,2.2,3.91c1.94,2.32,3.84,4.68,5.66,7.12Z" transform="translate(-131.04 -364.73)"/><path class="cls-8" d="M219.34,749.13c-.65-1.06-1.34-2.14-2-3.22l-1.92-2.37c-1.15-1.42-2.21-2.88-3.21-4.34l-6.38,3.48q1.14,1.94,2.2,3.91c1.94,2.32,3.84,4.68,5.66,7.12Z" transform="translate(-131.04 -364.73)"/><path class="cls-9" d="M345.07,833.63c1.75.33,3.53.62,5.34.81l2.22.23c-7.13-1.53-14.81-3.06-21.5-7l-1.78-3.11c-2.27-5.69,1.73-11.62,4.35-16.72,9.09-12.35,17.38-25,28.78-35.12q-5.18-1-10.22-2.44a145.21,145.21,0,0,1-26.09,23.53c-7.31.29-4.66-8.58-7-12.87-.47-8.46-1.48-16.7-.39-24.48q-4.55-2.57-8.88-5.43a199.81,199.81,0,0,1-4.83,47.8c-1.4,4.65-3,9.69-7.81,11.47-6.33.92-13.87-2.62-20.12-5.95,1,.68,1.94,1.36,2.87,2l-3.5,6.4c-2.94-1.76-5.93-3.39-9-4.94A193.3,193.3,0,0,1,286,825.14c8.92,13.17,6.78,27,.8,40.2,3.92,1.7,8.64,3.65,11.91,5,5.33-15.36,16.88-28.69,35.08-29.21,4.65.13,9.29.37,13.94.79-1.55-.46-3.11-.91-4.69-1.31Z" transform="translate(-131.04 -364.73)"/><path class="cls-10" d="M280,806.41c-.93-.68-1.9-1.36-2.87-2-1.32-.7-2.58-1.39-3.76-2-1.61-.87-3.14-1.81-4.65-2.78l-4.56,5.66c1.15.86,2.27,1.74,3.39,2.64,3,1.55,6,3.18,9,4.94Z" transform="translate(-131.04 -364.73)"/><path class="cls-11" d="M280,806.41c-.93-.68-1.9-1.36-2.87-2-1.32-.7-2.58-1.39-3.76-2-1.61-.87-3.14-1.81-4.65-2.78l-4.56,5.66c1.15.86,2.27,1.74,3.39,2.64,3,1.55,6,3.18,9,4.94Z" transform="translate(-131.04 -364.73)"/><path class="cls-12" d="M428.06,836c1.74-.37,3.5-.78,5.25-1.32l1.51-.45c-6.84,1.26-14.1,2.57-21.37,1.56l-2.83-2.2c-4.28-4.38-2.85-11.4-2.37-17.11,3.67-14.95,6.49-29.91,13.21-43.65q-5.15,1-10.4,1.7a144.78,144.78,0,0,1-15.15,31.87c-6.63,3.07-7.59-6.15-11.37-9.22-3.68-7.63-7.75-14.85-9.73-22.47q-5.18-.6-10.25-1.54a200.67,200.67,0,0,1,13.81,45.94c.47,4.83.95,10.1-2.84,13.6-6,3.59-15.47,2.77-22.91,2,1.54.33,3.06.66,4.54,1l-.78,7.25c-2.89-.43-5.78-.76-8.67-1a196.38,196.38,0,0,1,23.07,8.73c13.28,8.77,16.59,22.37,16.12,36.85,4.27.06,9.37.06,12.92.06-.95-16.23,4.62-33,21.22-40.41,4.4-1.68,8.83-3.23,13.33-4.63-1.85.18-3.69.39-5.54.65Z" transform="translate(-131.04 -364.73)"/><path class="cls-13" d="M357.16,835.69c-1.48-.36-3-.69-4.54-1l-2.22-.23c-1.82-.19-3.59-.48-5.34-.81l-2,7c1.58.4,3.14.85,4.69,1.31,2.89.26,5.78.59,8.67,1Z" transform="translate(-131.04 -364.73)"/><path class="cls-14" d="M357.16,835.69c-1.48-.36-3-.69-4.54-1l-2.22-.23c-1.82-.19-3.59-.48-5.34-.81l-2,7c1.58.4,3.14.85,4.69,1.31,2.89.26,5.78.59,8.67,1Z" transform="translate(-131.04 -364.73)"/><path class="cls-15" d="M505.29,806.57c1.46-1,2.94-2.06,4.35-3.22l1.38-1.12c-5.78,3.75-11.93,7.67-18.95,9.5l-3.46-.94c-5.63-2.42-7-9.45-8.75-14.91-2.31-15.26-5.44-30.19-4.47-45.51-2.92,2-5.92,3.83-9,5.58a145.37,145.37,0,0,1-1.8,35.33c-4.95,5.38-9.35-2.77-14-4.17-6.33-5.65-12.89-10.78-17.63-17.08q-5,1.41-10.09,2.47a201.24,201.24,0,0,1,30.42,37.24c2.28,4.27,4.74,9,2.58,13.64-4.33,5.79-13.77,8.64-21,10.79,2-.36,3.88-.72,5.75-1l2.05,7c-2.79.7-5.53,1.5-8.25,2.35a200,200,0,0,1,24-.69c15.62,3,23.88,14.31,29,27.88,4-1.58,8.69-3.54,12-4.9-7.08-14.63-8.35-32.22,4.15-45.46q5-4.76,10.32-9.19c-1.67.89-3.34,1.81-5,2.78Z" transform="translate(-131.04 -364.73)"/><path class="cls-16" d="M440.58,833.17c-1.88.3-3.8.66-5.75,1l-1.51.45c-1.75.53-3.51,1-5.25,1.32l.78,7.23c1.85-.26,3.7-.47,5.54-.65,2.72-.85,5.46-1.65,8.25-2.35Z" transform="translate(-131.04 -364.73)"/><path class="cls-17" d="M440.58,833.17c-1.88.3-3.8.66-5.75,1l-1.51.45c-1.75.53-3.51,1-5.25,1.32l.78,7.23c1.85-.26,3.7-.47,5.54-.65,2.72-.85,5.46-1.65,8.25-2.35Z" transform="translate(-131.04 -364.73)"/><path class="cls-18" d="M565.82,748.82c.83-1.3,1.65-2.64,2.42-4-3.68,5.32-7.69,10.8-13.08,14.89l-3.57.45c-6.12-.07-10.07-6-13.78-10.42-8-13.18-16.56-25.75-21.51-40.23-2,2.92-4,5.76-6.18,8.53A145.23,145.23,0,0,1,522,751.34c-2.53,6.86-9.71,1-14.57,1.52-8-2.83-16.11-5.06-22.91-9.1q-4.1,3.21-8.41,6.15a199.3,199.3,0,0,1,42.46,22.83c3.76,3.07,7.81,6.45,7.61,11.61-1.77,6.95-9.29,13.15-15.15,17.9,1.73-1.12,3.43-2.23,5.11-3.26l4.57,5.69c-2.38,1.77-4.67,3.62-6.93,5.5a198.79,198.79,0,0,1,21.76-9.75c15.58-3.19,27.54,4.08,37.45,14.66,3-3,6.67-6.59,9.18-9.09-12.14-10.8-20-26.57-13.57-43.58,2.12-4.73,4.37-9.4,6.83-14-1.34,1.62-2.67,3.26-3.94,5Z" transform="translate(-131.04 -364.73)"/><path class="cls-19" d="M516.12,799c-1.68,1-3.38,2.14-5.11,3.26l-1.38,1.12c-1.41,1.16-2.88,2.21-4.35,3.22l3.49,6.38c1.64-1,3.31-1.89,5-2.78,2.26-1.88,4.55-3.73,6.93-5.5Z" transform="translate(-131.04 -364.73)"/><path class="cls-20" d="M516.12,799c-1.68,1-3.38,2.14-5.11,3.26l-1.38,1.12c-1.41,1.16-2.88,2.21-4.35,3.22l3.49,6.38c1.64-1,3.31-1.89,5-2.78,2.26-1.88,4.55-3.73,6.93-5.5Z" transform="translate(-131.04 -364.73)"/><path class="cls-21" d="M599.34,673.37c.23-1.29.44-2.59.61-3.9-1.29,5.77-2.9,11.67-6,17l-3.11,1.79c-5.68,2.26-11.63-1.75-16.72-4.36-8.7-6.41-17.58-12.41-25.59-19.39q-3.74,2.46-7.56,4.81a146.6,146.6,0,0,1,19.12,22.11c.3,7.31-8.58,4.66-12.87,7-8.41.47-16.6,1.47-24.35.41q-2.52,4.53-5.35,8.87a200.21,200.21,0,0,1,47.6,4.82c4.64,1.41,9.68,3,11.47,7.82,1.11,7.66-4.32,17.1-8,23.9l-.36.63c1.45-2.09,2.85-4.16,4.26-6.1l6.4,3.5c-1.22,2-2.37,4.12-3.49,6.21a198.56,198.56,0,0,1,16-16.84c13.17-8.92,27-6.78,40.2-.8,1.68-3.92,3.64-8.62,5-11.92-15.35-5.32-28.68-16.87-29.21-35.06.14-5.11.42-10.21.93-15.32-.72,2.28-1.4,4.6-2,6.94Z" transform="translate(-131.04 -364.73)"/><path class="cls-22" d="M572.5,738.71c-1.41,1.95-2.81,4-4.26,6.1-.77,1.37-1.59,2.71-2.42,4l5.65,4.55c1.27-1.69,2.6-3.34,3.94-5,1.12-2.09,2.27-4.16,3.49-6.21Z" transform="translate(-131.04 -364.73)"/><path class="cls-23" d="M572.5,738.71c-1.41,1.95-2.81,4-4.26,6.1-.77,1.37-1.59,2.71-2.42,4l5.65,4.55c1.27-1.69,2.6-3.34,3.94-5,1.12-2.09,2.27-4.16,3.49-6.21Z" transform="translate(-131.04 -364.73)"/><path class="cls-24" d="M615.8,602.73a287.16,287.16,0,0,1-36.54,38.39q2.75-.55,5.5-1c4.83-.48,10.1-1,13.6,2.83,4,6.66,2.55,17.45,1.77,25.13,0,.48-.12,1-.18,1.44.69-3.1,1.3-6.16,2-9.06l7.25.78c-.36,2.43-.65,4.86-.89,7.29a203.6,203.6,0,0,1,8.06-20.83c8.76-13.27,22.35-16.59,36.83-16.12.07-4.27.07-9.37.07-12.92C638.92,619.45,624.18,615.19,615.8,602.73Z" transform="translate(-131.04 -364.73)"/><path class="cls-25" d="M601.94,660.41c-.7,2.9-1.3,6-2,9.06-.17,1.31-.38,2.62-.61,3.9l7,2c.6-2.34,1.28-4.66,2-6.94.24-2.43.53-4.86.89-7.29Z" transform="translate(-131.04 -364.73)"/><path class="cls-26" d="M601.94,660.41c-.7,2.9-1.3,6-2,9.06-.17,1.31-.38,2.62-.61,3.9l7,2c.6-2.34,1.28-4.66,2-6.94.24-2.43.53-4.86.89-7.29Z" transform="translate(-131.04 -364.73)"/><path class="cls-27" d="M526.34,677.68a143.77,143.77,0,0,1-268.4,0q-3.88-2.07-7.69-4.26a149.11,149.11,0,0,0,11.54,26c.68-.05,1.35-.08,2-.14l-.61-1.2a3.48,3.48,0,0,1,.43.22,25.91,25.91,0,0,0,5,10.1l-1.41-.08c.47.71.94,1.42,1.42,2.12.16-.42.34-.83.5-1.25a3.49,3.49,0,0,0-.44-.93l.48-.25a25.21,25.21,0,0,0,6.28,9.93l.07.07a.23.23,0,0,1,0,0,2.34,2.34,0,0,0-.23-.22c-.19.31-.36.63-.54.95a150.44,150.44,0,0,0,25.59,25.41l1.7-.84-1-.88.48,0a29.26,29.26,0,0,0,2.39,2.84,26.88,26.88,0,0,0,5.62,4.3,3.47,3.47,0,0,0-.38-.29l.34-.42a25.26,25.26,0,0,0,9.61,6.77l.09,0,0,0-.3-.1c0,.27-.06.54-.1.8a148.64,148.64,0,0,0,33.46,13.82c.37-.43.76-.85,1.13-1.29l-1.29-.43c.15,0,.31-.11.46-.14a26,26,0,0,0,10.68,3.61c-.26.22-.51.46-.76.68l2.09.4-.42-1c-.34-.19,10.55,1.74,10.45,1.75.06.26.15.52.22.78a150.76,150.76,0,0,0,36.24-.19c.16-.49.34-1,.5-1.47,0,0,8-.31,10.26-1l-.36.74,1.39-.28-.69-.68a3.13,3.13,0,0,0-1,.06l-.06-.54a25.34,25.34,0,0,0,11.58-2l.09,0h0c-.09.05-.21.09-.29.14.14.2.31.39.46.58A148.53,148.53,0,0,0,466.42,756c0-.48-.06-1-.1-1.45l-1.22.6c.08-.15.14-.29.23-.43a26.06,26.06,0,0,0,10.11-5c0,.23,0,.46,0,.7l.71-.48-.79-.32a3.42,3.42,0,0,0-.92.44l-.26-.47a25.2,25.2,0,0,0,9.92-6.27.44.44,0,0,0,.07-.09h0a2.12,2.12,0,0,0-.2.24l.55.31A150.31,150.31,0,0,0,510.14,718c-.22-.44-.43-.89-.66-1.34l-.89,1c0-.16,0-.32,0-.48a27,27,0,0,0,2.82-2.4,26.67,26.67,0,0,0,4.6-6.09c.08.25.18.5.27.76.41-.61.81-1.23,1.22-1.85h-1.22a3.35,3.35,0,0,0-.68.75l-.42-.33a25.25,25.25,0,0,0,6.77-9.59.18.18,0,0,0,0-.1l0,0-.11.3c.31.05.63.07.94.12a148.22,148.22,0,0,0,11.17-25.36C531.5,674.88,528.93,676.29,526.34,677.68Z" transform="translate(-131.04 -364.73)"/><path class="cls-28" d="M309.84,750c-.34.11-.67.24-1,.36l1.09.72c0-.33,0-.67,0-1Z" transform="translate(-131.04 -364.73)"/><path class="cls-29" d="M264.77,701.85a27.37,27.37,0,0,1-1.14-3.54c-.14-.09-.29-.14-.43-.22l.61,1.2c-.68.06-1.35.09-2,.14q2.57,4.55,5.43,8.9c.47,0,.94,0,1.41.08A27.4,27.4,0,0,1,264.77,701.85Z" transform="translate(-131.04 -364.73)"/><path class="cls-30" d="M264.77,701.85a27.37,27.37,0,0,1-1.14-3.54c-.14-.09-.29-.14-.43-.22l.61,1.2c-.68.06-1.35.09-2,.14q2.57,4.55,5.43,8.9c.47,0,.94,0,1.41.08A27.4,27.4,0,0,1,264.77,701.85Z" transform="translate(-131.04 -364.73)"/><path class="cls-31" d="M309.52,749.65a27.5,27.5,0,0,1-5.62-4.3,28.12,28.12,0,0,1-2.39-2.84l-.48,0,1,.88c-.56.29-1.13.56-1.7.84q4.13,3.21,8.48,6.14l1-.36C309.73,749.86,309.63,749.74,309.52,749.65Z" transform="translate(-131.04 -364.73)"/><path class="cls-32" d="M309.52,749.65a27.5,27.5,0,0,1-5.62-4.3,28.12,28.12,0,0,1-2.39-2.84l-.48,0,1,.88c-.56.29-1.13.56-1.7.84q4.13,3.21,8.48,6.14l1-.36C309.73,749.86,309.63,749.74,309.52,749.65Z" transform="translate(-131.04 -364.73)"/><path class="cls-33" d="M275.53,718.06a.1.1,0,0,0,0,0l-.07-.07a25.4,25.4,0,0,1-6.28-9.93l-.48.25a3.34,3.34,0,0,1,.44.93c-.16.42-.34.84-.5,1.25q2.92,4.27,6.13,8.33c.18-.31.35-.64.54-.95Z" transform="translate(-131.04 -364.73)"/><path class="cls-34" d="M275.53,718.06a.1.1,0,0,0,0,0l-.07-.07a25.4,25.4,0,0,1-6.28-9.93l-.48.25a3.34,3.34,0,0,1,.44.93c-.16.42-.34.84-.5,1.25q2.92,4.27,6.13,8.33c.18-.31.35-.64.54-.95Z" transform="translate(-131.04 -364.73)"/><path class="cls-35" d="M355.86,770.13a26.15,26.15,0,0,1-3.3-1.69l-.46.14,1.29.43c-.37.44-.75.86-1.13,1.29q5,1.4,10.22,2.44c.25-.23.5-.46.76-.68A28.21,28.21,0,0,1,355.86,770.13Z" transform="translate(-131.04 -364.73)"/><path class="cls-36" d="M355.86,770.13a26.15,26.15,0,0,1-3.3-1.69l-.46.14,1.29.43c-.37.44-.75.86-1.13,1.29q5,1.4,10.22,2.44c.25-.23.5-.46.76-.68A28.21,28.21,0,0,1,355.86,770.13Z" transform="translate(-131.04 -364.73)"/><path class="cls-37" d="M319.2,755.77l0,0-.09,0a25.15,25.15,0,0,1-9.61-6.77l-.34.42a2.55,2.55,0,0,1,.38.29l.47.28-.15.05.07.07c0,.33,0,.67,0,1q4.33,2.87,8.88,5.43c0-.27.06-.54.1-.8Z" transform="translate(-131.04 -364.73)"/><path class="cls-38" d="M319.2,755.77l0,0-.09,0a25.15,25.15,0,0,1-9.61-6.77l-.34.42a2.55,2.55,0,0,1,.38.29l.47.28-.15.05.07.07c0,.33,0,.67,0,1q4.33,2.87,8.88,5.43c0-.27.06-.54.1-.8Z" transform="translate(-131.04 -364.73)"/><path class="cls-39" d="M309.84,750l.15-.05-.47-.28A3.37,3.37,0,0,1,309.84,750Z" transform="translate(-131.04 -364.73)"/><path class="cls-40" d="M309.84,750l.15-.05-.47-.28A3.37,3.37,0,0,1,309.84,750Z" transform="translate(-131.04 -364.73)"/><path class="cls-41" d="M309.84,750l.15-.05-.47-.28A3.37,3.37,0,0,1,309.84,750Z" transform="translate(-131.04 -364.73)"/><path class="cls-42" d="M411.56,773c-.16.49-.33,1-.5,1.47q5.26-.66,10.4-1.7c.12-.25.23-.5.36-.74C419.54,772.71,411.56,773,411.56,773Z" transform="translate(-131.04 -364.73)"/><path class="cls-43" d="M411.56,773c-.16.49-.33,1-.5,1.47q5.26-.66,10.4-1.7c.12-.25.23-.5.36-.74C419.54,772.71,411.56,773,411.56,773Z" transform="translate(-131.04 -364.73)"/><path class="cls-44" d="M364.14,772.14c.15.33.28.66.42,1,3.38.63,6.79,1.14,10.25,1.54-.07-.26-.15-.52-.22-.78C374.7,773.88,363.8,772,364.14,772.14Z" transform="translate(-131.04 -364.73)"/><path class="cls-45" d="M364.14,772.14c.15.33.28.66.42,1,3.38.63,6.79,1.14,10.25,1.54-.07-.26-.15-.52-.22-.78C374.7,773.88,363.8,772,364.14,772.14Z" transform="translate(-131.04 -364.73)"/><path class="cls-46" d="M468.84,753.54a26.29,26.29,0,0,1-3.53,1.14c-.09.14-.15.28-.23.43l1.22-.6c0,.48.06,1,.1,1.45q4.59-2.64,9-5.58c0-.23,0-.46,0-.7A26.72,26.72,0,0,1,468.84,753.54Z" transform="translate(-131.04 -364.73)"/><path class="cls-47" d="M468.84,753.54a26.29,26.29,0,0,1-3.53,1.14c-.09.14-.15.28-.23.43l1.22-.6c0,.48.06,1,.1,1.45q4.59-2.64,9-5.58c0-.23,0-.46,0-.7A26.72,26.72,0,0,1,468.84,753.54Z" transform="translate(-131.04 -364.73)"/><path class="cls-48" d="M432.77,769.31h0s-.05,0-.09,0a25.06,25.06,0,0,1-11.58,2l.06.54a3.09,3.09,0,0,1,1-.06l.69.68q5.12-1.07,10.09-2.47c-.15-.2-.31-.38-.46-.58Z" transform="translate(-131.04 -364.73)"/><path class="cls-49" d="M432.77,769.31h0s-.05,0-.09,0a25.06,25.06,0,0,1-11.58,2l.06.54a3.09,3.09,0,0,1,1-.06l.69.68q5.12-1.07,10.09-2.47c-.15-.2-.31-.38-.46-.58Z" transform="translate(-131.04 -364.73)"/><path class="cls-50" d="M511.43,714.83a28.26,28.26,0,0,1-2.82,2.4c0,.16,0,.33,0,.48l.89-1c.23.44.44.89.66,1.34q3.24-4.15,6.18-8.53l-.27-.76A26.67,26.67,0,0,1,511.43,714.83Z" transform="translate(-131.04 -364.73)"/><path class="cls-51" d="M511.43,714.83a28.26,28.26,0,0,1-2.82,2.4c0,.16,0,.33,0,.48l.89-1c.23.44.44.89.66,1.34q3.24-4.15,6.18-8.53l-.27-.76A26.67,26.67,0,0,1,511.43,714.83Z" transform="translate(-131.04 -364.73)"/><path class="cls-52" d="M484.14,743.2h0a.44.44,0,0,1-.07.09,25.31,25.31,0,0,1-9.92,6.27l.26.47a3.57,3.57,0,0,1,.92-.44l.79.32q4.31-2.92,8.41-6.15l-.55-.31A2.19,2.19,0,0,1,484.14,743.2Z" transform="translate(-131.04 -364.73)"/><path class="cls-53" d="M484.14,743.2h0a.44.44,0,0,1-.07.09,25.31,25.31,0,0,1-9.92,6.27l.26.47a3.57,3.57,0,0,1,.92-.44l.79.32q4.31-2.92,8.41-6.15l-.55-.31A2.19,2.19,0,0,1,484.14,743.2Z" transform="translate(-131.04 -364.73)"/><path class="cls-54" d="M522,698.37l0,0a.18.18,0,0,1,0,.1,25.18,25.18,0,0,1-6.77,9.59l.42.33a3.15,3.15,0,0,1,.68-.75h1.22q2.82-4.33,5.35-8.87c-.31,0-.63-.07-.94-.12A2,2,0,0,1,522,698.37Z" transform="translate(-131.04 -364.73)"/><path class="cls-55" d="M522,698.37l0,0a.18.18,0,0,1,0,.1,25.18,25.18,0,0,1-6.77,9.59l.42.33a3.15,3.15,0,0,1,.68-.75h1.22q2.82-4.33,5.35-8.87c-.31,0-.63-.07-.94-.12A2,2,0,0,1,522,698.37Z" transform="translate(-131.04 -364.73)"/><path class="cls-1" d="M237.34,552.45c-4.28,2.32-13.16-.32-12.86,7a144.87,144.87,0,0,0,23.69,26.24,148.82,148.82,0,0,1,14.05-33.57C254.31,550.93,245.94,552,237.34,552.45Z" transform="translate(-131.04 -364.73)"/><path class="cls-1" d="M517,495.85a145.54,145.54,0,0,0-33.52,11.95,150.11,150.11,0,0,1,25.9,25.6c4.07-6.83,6.3-14.91,9.13-23C518.05,505.55,523.89,498.37,517,495.85Z" transform="translate(-131.04 -364.73)"/><path class="cls-1" d="M525.86,466.23l-.46-3.57c-5.46-7.22-13.4-11.94-20.13-16.74-5.75-2.92-12.26-5.57-17.83-4.76C482.6,443,481,448,479.62,452.64a199.43,199.43,0,0,0-4.8,48.8l.15.16c14.58-4.94,27.22-13.58,40.48-21.6C519.82,476.29,525.79,472.35,525.86,466.23Z" transform="translate(-131.04 -364.73)"/><path class="cls-1" d="M248,666.13a52.49,52.49,0,0,0-4.13,3.51q3.15,1.92,6.34,3.77C249.44,671,248.71,668.59,248,666.13Z" transform="translate(-131.04 -364.73)"/><path class="cls-1" d="M465.53,495.74v0a2.65,2.65,0,0,1,.3.11c1.28-8,.2-16.54-.29-25.29-2.33-4.29.33-13.16-7-12.86A145.4,145.4,0,0,0,431.79,482a148.71,148.71,0,0,1,41.44,18.56,26.2,26.2,0,0,0-7.6-4.73S465.57,495.76,465.53,495.74Z" transform="translate(-131.04 -364.73)"/><path class="cls-1" d="M552.85,567.9c1.39-4.68,9.54-9.07,4.16-14a146,146,0,0,0-35-1.82,148.93,148.93,0,0,1,14,33.28C542.21,580.6,547.27,574.14,552.85,567.9Z" transform="translate(-131.04 -364.73)"/><path class="cls-1" d="M589.12,562.63c-4.68-2.15-9.37.28-13.64,2.59a199.78,199.78,0,0,0-37,30.17c.12.58.24,1.17.35,1.76,13.64,6.6,28.47,9.4,43.28,13.06,5.72.47,12.73,1.9,17.12-2.38l2.19-2.84c1-7.34-.32-14.67-1.59-21.56C597.7,576.19,594.85,566.91,589.12,562.63Z" transform="translate(-131.04 -364.73)"/><path class="cls-1" d="M561.61,538.62c5.45-1.75,12.49-3.12,14.9-8.74l1-3.47c-2.16-8.27-7.23-15.34-11.48-22-4.44-5.35-9.91-11.21-15.94-12.75-5.15-.19-8.54,3.86-11.61,7.61a200.47,200.47,0,0,0-22.84,42.52l.91,1.34C531.67,544,546.48,540.93,561.61,538.62Z" transform="translate(-131.04 -364.73)"/><path class="cls-1" d="M262.17,501.25A145.1,145.1,0,0,0,274,534.51a150.32,150.32,0,0,1,25.54-25.75c-6.79-4-14.8-6.23-22.8-9C271.88,500.23,264.69,494.39,262.17,501.25Z" transform="translate(-131.04 -364.73)"/><path class="cls-1" d="M334.74,464.82c-4.66-1.39-9.07-9.53-14-4.16a145.53,145.53,0,0,0-1.81,35.11A148.47,148.47,0,0,1,352.42,482C347.68,475.64,341.1,470.49,334.74,464.82Z" transform="translate(-131.04 -364.73)"/><path class="cls-1" d="M246.32,502.84c-3.7-4.37-7.65-10.34-13.77-10.42l-3.57.46c-6.6,5-11.11,12.06-15.51,18.38-3.19,6.09-6.39,13.23-5.51,19.28,1.78,4.84,6.83,6.41,11.48,7.82a199.8,199.8,0,0,0,48.3,4.82l.09-.14C262.86,528.57,254.28,516,246.32,502.84Z" transform="translate(-131.04 -364.73)"/><path class="cls-1" d="M305.45,456.06c-1.75-5.46-3.12-12.48-8.73-14.91l-3.46-.93c-7.86,2-14.63,6.7-21,10.81-5.71,4.65-12.61,10.59-14.28,17.2-.21,5.15,3.86,8.54,7.61,11.62a200.71,200.71,0,0,0,42.32,22.75l2-1.38C310.86,486,307.77,471.22,305.45,456.06Z" transform="translate(-131.04 -364.73)"/><path class="cls-1" d="M534,673.42c2.33-1.34,4.63-2.72,6.92-4.13q-2.18-2.06-4.46-4Q535.38,669.39,534,673.42Z" transform="translate(-131.04 -364.73)"/><path class="cls-1" d="M377.2,435.87c.47-5.72,1.9-12.74-2.37-17.11l-2.84-2.2c-8.44-1.17-16.87.78-24.63,2.15-6.65,2.06-14.17,4.87-17.89,9.85-2.15,4.68.3,9.37,2.58,13.65a201.19,201.19,0,0,0,30.54,37.36l1.5-.29C370.73,465.59,373.54,450.72,377.2,435.87Z" transform="translate(-131.04 -364.73)"/><path class="cls-1" d="M389.54,445.94a144.59,144.59,0,0,0-15.11,31.74,150.54,150.54,0,0,1,36.24.09c-2-7.67-6.07-14.93-9.77-22.61C397.11,452.07,396.17,442.87,389.54,445.94Z" transform="translate(-131.04 -364.73)"/><path class="cls-1" d="M451,443.64c2.63-5.09,6.63-11,4.36-16.72l-1.79-3.11a51.53,51.53,0,0,0-13.7-5.23c-1.6-.28-3.2-.54-4.85-.71-7.68-.78-18.47-2.2-25.13,1.77-3.78,3.5-3.31,8.77-2.82,13.59A199.73,199.73,0,0,0,421,479.43q3.22.63,6.4,1.4a27.36,27.36,0,0,0-5.9-1.37C433.28,469.24,441.73,456.27,451,443.64Z" transform="translate(-131.04 -364.73)"/><path class="cls-1" d="M538.88,655a101.43,101.43,0,0,0,9.63,9.49,285.63,285.63,0,0,0,30.75-23.36,199.54,199.54,0,0,0-40.15,12.64C539,654.16,539,654.57,538.88,655Z" transform="translate(-131.04 -364.73)"/><path class="cls-1" d="M392.14,482.43a143.79,143.79,0,0,0-134.2,195.24,285.08,285.08,0,0,0,268.41,0A143.8,143.8,0,0,0,392.14,482.43Z" transform="translate(-131.04 -364.73)"/><path class="cls-1" d="M210.44,567c-5.09-2.62-11-6.62-16.72-4.36l-3.11,1.79c-3.53,6-5.13,12.84-6.52,19.34-.79,7.63-2,18,1.83,24.51,3.51,3.79,8.77,3.32,13.6,2.84a200.11,200.11,0,0,0,45.9-13.79c.09-.47.18-.95.28-1.42C235.57,584.41,222.84,576.08,210.44,567Z" transform="translate(-131.04 -364.73)"/><path class="cls-1" d="M540.66,643.54c7.51-2,14.63-6,22.17-9.64,3.08-3.79,12.3-4.74,9.24-11.37a145.67,145.67,0,0,0-31.55-15,151.43,151.43,0,0,1,1.16,18.67A153.65,153.65,0,0,1,540.66,643.54Z" transform="translate(-131.04 -364.73)"/><path class="cls-1" d="M243.76,607.56c-7.56,2-14.74,6-22.32,9.69-3.08,3.78-12.29,4.74-9.21,11.37a144.36,144.36,0,0,0,31.4,15,150.21,150.21,0,0,1-1-17.46A152,152,0,0,1,243.76,607.56Z" transform="translate(-131.04 -364.73)"/><path class="cls-1" d="M245.61,656.05c-.14-.71-.28-1.43-.41-2.15-12.43-6-25.84-8.83-39.34-12a286.32,286.32,0,0,0,30.62,23.09Q241.19,660.64,245.61,656.05Z" transform="translate(-131.04 -364.73)"/><path class="cls-56" d="M278.84,446c-1.48,1-2.94,2.06-4.35,3.22L272.26,451c6.38-4.11,13.14-8.77,21-10.81l3.46.93c5.61,2.42,7,9.44,8.73,14.91,2.31,15.16,5.41,30,4.5,45.17q4.37-2.88,8.95-5.46a145,145,0,0,1,1.81-35.11c5-5.37,9.37,2.77,14,4.16,6.36,5.68,12.94,10.82,17.69,17.15q5-1.38,10.16-2.41a201.19,201.19,0,0,1-30.54-37.36c-2.28-4.28-4.73-9-2.58-13.65,3.72-5,11.25-7.79,17.89-9.85l-2.49.42-2.05-7c3.37-.85,6.68-1.82,10-2.88a192,192,0,0,1-25.82.87c-15.62-3-23.89-14.31-29-27.87-4,1.57-8.68,3.53-11.94,4.88,7.08,14.63,8.33,32.22-4.15,45.46q-5,4.76-10.34,9.21c1.28-.7,2.55-1.41,3.81-2.15Z" transform="translate(-131.04 -364.73)"/><path class="cls-56" d="M218.73,502c-1,1.5-1.91,3-2.78,4.63-.77,1.43-1.63,3-2.48,4.61,4.39-6.32,8.91-13.39,15.51-18.38l3.57-.46c6.11.08,10.07,6,13.77,10.42,8,13.17,16.55,25.74,21.51,40.2q2.94-4.38,6.17-8.54a145.1,145.1,0,0,1-11.82-33.26c2.52-6.86,9.71-1,14.56-1.52,8,2.8,16,5,22.8,9,2.71-2.14,5.51-4.19,8.37-6.15a200.71,200.71,0,0,1-42.32-22.75c-3.75-3.08-7.82-6.47-7.61-11.62,1.67-6.61,8.57-12.55,14.28-17.2-1,.67-2.06,1.32-3.07,1.94l-4.58-5.68c2.38-1.77,4.68-3.62,6.94-5.5a193.47,193.47,0,0,1-22.94,10.36c-15.59,3.19-27.54-4.08-37.45-14.65-3.06,3-6.67,6.59-9.17,9.1,12.14,10.8,20,26.57,13.56,43.58-1.59,3.55-3.25,7.07-5,10.54.86-1.07,1.71-2.16,2.54-3.26Z" transform="translate(-131.04 -364.73)"/><path class="cls-57" d="M269.19,453c1-.62,2-1.27,3.07-1.94l2.23-1.81c1.41-1.16,2.87-2.21,4.35-3.22l-3.49-6.37c-1.26.74-2.53,1.46-3.81,2.15-2.26,1.89-4.55,3.74-6.94,5.5Z" transform="translate(-131.04 -364.73)"/><path class="cls-56" d="M269.19,453c1-.62,2-1.27,3.07-1.94l2.23-1.81c1.41-1.16,2.87-2.21,4.35-3.22l-3.49-6.37c-1.26.74-2.53,1.46-3.81,2.15-2.26,1.89-4.55,3.74-6.94,5.5Z" transform="translate(-131.04 -364.73)"/><path class="cls-56" d="M193.72,562.6c5.69-2.26,11.62,1.73,16.72,4.36,12.4,9.13,25.13,17.45,35.24,28.91q1.06-5.18,2.48-10.2a145.24,145.24,0,0,1-23.69-26.24c-.3-7.29,8.58-4.66,12.86-7,8.6-.48,17-1.52,24.87-.35q2.61-4.56,5.52-8.92a200.3,200.3,0,0,1-48.3-4.82c-4.65-1.4-9.7-3-11.48-7.82-.88-6,2.32-13.19,5.51-19.28-.62.89-1.23,1.76-1.85,2.61l-6.41-3.49c1.9-3.17,3.65-6.39,5.31-9.65a192.11,192.11,0,0,1-17.38,18.54c-13.17,8.91-27,6.77-40.2.79-1.68,3.92-3.64,8.64-5,11.91,15.35,5.34,28.69,16.88,29.21,35.07-.14,4.83-.39,9.65-.84,14.48.59-1.91,1.15-3.83,1.65-5.78l7,2c-.33,1.75-.62,3.53-.8,5.35l-.06.61c1.4-6.5,3-13.32,6.52-19.34Z" transform="translate(-131.04 -364.73)"/><path class="cls-58" d="M211.63,513.86c.62-.85,1.23-1.72,1.85-2.61.85-1.63,1.7-3.18,2.48-4.61.87-1.61,1.81-3.14,2.78-4.63l-5.66-4.56c-.83,1.1-1.68,2.19-2.54,3.26-1.66,3.26-3.41,6.49-5.31,9.65Z" transform="translate(-131.04 -364.73)"/><path class="cls-56" d="M211.63,513.86c.62-.85,1.23-1.72,1.85-2.61.85-1.63,1.7-3.18,2.48-4.61.87-1.61,1.81-3.14,2.78-4.63l-5.66-4.56c-.83,1.1-1.68,2.19-2.54,3.26-1.66,3.26-3.41,6.49-5.31,9.65Z" transform="translate(-131.04 -364.73)"/><path class="cls-56" d="M205.86,641.85c13.49,3.22,26.91,6.07,39.34,12q-1-5.08-1.56-10.29a144.36,144.36,0,0,1-31.4-15c-3.08-6.63,6.14-7.59,9.21-11.37,7.58-3.66,14.77-7.7,22.32-9.69.43-3.46,1-6.89,1.64-10.27a200.61,200.61,0,0,1-45.9,13.79c-4.83.48-10.09.95-13.6-2.84-3.85-6.48-2.62-16.88-1.83-24.51-.49,2.29-1,4.53-1.48,6.69l-7.25-.79q.6-4.07,1-8.13a197.5,197.5,0,0,1-8,21A286,286,0,0,0,205.86,641.85Z" transform="translate(-131.04 -364.73)"/><path class="cls-59" d="M185,577.76l-7-2c-.5,1.95-1.06,3.87-1.65,5.78q-.37,4.07-1,8.13l7.25.79c.52-2.16,1-4.41,1.48-6.69l.06-.61C184.33,581.3,184.62,579.52,185,577.76Z" transform="translate(-131.04 -364.73)"/><path class="cls-56" d="M185,577.76l-7-2c-.5,1.95-1.06,3.87-1.65,5.78q-.37,4.07-1,8.13l7.25.79c.52-2.16,1-4.41,1.48-6.69l.06-.61C184.33,581.3,184.62,579.52,185,577.76Z" transform="translate(-131.04 -364.73)"/><path class="cls-60" d="M245.61,656.05q-4.41,4.59-9.13,8.88c2.45,1.6,4.92,3.18,7.42,4.71a52.49,52.49,0,0,1,4.13-3.51Q246.65,661.17,245.61,656.05Z" transform="translate(-131.04 -364.73)"/><path class="cls-61" d="M538.88,655q-1,5.21-2.39,10.27c1.52,1.32,3,2.66,4.46,4,2.55-1.56,5.06-3.17,7.56-4.81A102.75,102.75,0,0,1,538.88,655Z" transform="translate(-131.04 -364.73)"/><path class="cls-56" d="M608.25,584.16c.18,1.82.38,3.65.65,5.47l-7.23.77c-.37-1.74-.78-3.5-1.3-5.24-.17-.57-.35-1.16-.52-1.76,1.27,6.89,2.61,14.23,1.59,21.56l-2.19,2.84c-4.38,4.27-11.39,2.84-17.12,2.38-14.82-3.66-29.65-6.46-43.28-13.06q1,5.11,1.67,10.34a145.45,145.45,0,0,1,31.55,15c3.06,6.63-6.15,7.58-9.24,11.37-7.54,3.63-14.66,7.65-22.17,9.64-.4,3.44-.91,6.85-1.54,10.21a199.34,199.34,0,0,1,40.15-12.64,286,286,0,0,0,36.54-38.39,35.51,35.51,0,0,1-3-5.34Q610.34,590.85,608.25,584.16Z" transform="translate(-131.04 -364.73)"/><path class="cls-56" d="M572.28,512.51c-1-1.46-2.06-2.93-3.21-4.34-1-1.18-2-2.47-3.08-3.78,4.25,6.68,9.32,13.75,11.48,22l-1,3.47c-2.42,5.62-9.45,7-14.9,8.74-15.13,2.31-29.94,5.4-45.1,4.5q2.91,4.35,5.53,8.92a145.94,145.94,0,0,1,35,1.82c5.38,5-2.77,9.35-4.16,14-5.59,6.24-10.64,12.7-16.83,17.42q1.41,5,2.47,10.06a199.85,199.85,0,0,1,37-30.17c4.27-2.3,9-4.74,13.64-2.59,5.73,4.28,8.58,13.56,10.73,20.78-.35-1.88-.69-3.74-1-5.55l7-2.05c.71,2.82,1.52,5.59,2.38,8.35a197,197,0,0,1-.69-24c3-15.63,14.3-23.9,27.86-29-1.57-4-3.53-8.68-4.89-12-14.62,7.09-32.21,8.36-45.45-4.14q-4.23-4.47-8.23-9.17c.59,1.06,1.19,2.12,1.8,3.16Z" transform="translate(-131.04 -364.73)"/><path class="cls-62" d="M598.87,577.86c.29,1.81.63,3.66,1,5.55l.52,1.76c.52,1.74.93,3.5,1.3,5.24l7.23-.77c-.26-1.82-.47-3.65-.65-5.47-.86-2.76-1.67-5.53-2.38-8.35Z" transform="translate(-131.04 -364.73)"/><path class="cls-56" d="M598.87,577.86c.29,1.81.63,3.66,1,5.55l.52,1.76c.52,1.74.93,3.5,1.3,5.24l7.23-.77c-.26-1.82-.47-3.65-.65-5.47-.86-2.76-1.67-5.53-2.38-8.35Z" transform="translate(-131.04 -364.73)"/><path class="cls-56" d="M516,451.93c-1.5-1-3-1.91-4.63-2.78-1.85-1-3.91-2.13-6.07-3.23,6.74,4.8,14.67,9.53,20.13,16.74l.46,3.57c-.07,6.12-6,10.06-10.42,13.77-13.26,8-25.89,16.66-40.48,21.6l.12.13q4.32,2.89,8.43,6.07A145.08,145.08,0,0,1,517,495.85c6.86,2.52,1,9.7,1.52,14.56-2.83,8.08-5.06,16.16-9.13,23q3.22,4.08,6.17,8.38a199.33,199.33,0,0,1,22.84-42.52c3.06-3.75,6.46-7.8,11.61-7.61,6,1.53,11.5,7.4,15.94,12.75-.44-.68-.87-1.37-1.28-2l5.68-4.58c2.07,2.79,4.24,5.47,6.47,8.1a190.84,190.84,0,0,1-10.72-23.57c-3.18-15.6,4.08-27.55,14.65-37.46-3-3.06-6.6-6.67-9.1-9.18-10.8,12.15-26.57,20.05-43.58,13.57-3.25-1.46-6.47-3-9.66-4.57.69.54,1.38,1.09,2.09,1.62Z" transform="translate(-131.04 -364.73)"/><path class="cls-63" d="M564.7,502.35c.41.68.84,1.36,1.28,2,1.09,1.31,2.12,2.6,3.08,3.78,1.15,1.41,2.19,2.88,3.21,4.34l6.38-3.48c-.62-1-1.22-2.1-1.8-3.16-2.23-2.63-4.4-5.31-6.47-8.1Z" transform="translate(-131.04 -364.73)"/><path class="cls-56" d="M564.7,502.35c.41.68.84,1.36,1.28,2,1.09,1.31,2.12,2.6,3.08,3.78,1.15,1.41,2.19,2.88,3.21,4.34l6.38-3.48c-.62-1-1.22-2.1-1.8-3.16-2.23-2.63-4.4-5.31-6.47-8.1Z" transform="translate(-131.04 -364.73)"/><path class="cls-56" d="M440.38,418.66l-.5-.08a51.4,51.4,0,0,1,13.7,5.23l1.79,3.11c2.27,5.68-1.74,11.63-4.36,16.72-9.29,12.63-17.73,25.6-29.53,35.81a27.23,27.23,0,0,1,5.9,1.37q2.22.54,4.41,1.14a145.07,145.07,0,0,1,26.77-24.28c7.29-.3,4.64,8.57,7,12.86.48,8.75,1.57,17.26.29,25.29l-.3-.11v0a.21.21,0,0,1,.1,0,26.07,26.07,0,0,1,7.6,4.73l1.68,1.1,0,0-.15-.16a199.92,199.92,0,0,1,4.8-48.8c1.4-4.65,3-9.69,7.82-11.48,5.57-.81,12.08,1.84,17.83,4.76l-.86-.61,3.51-6.4c3.45,2.06,7,4,10.52,5.74a188.33,188.33,0,0,1-19.72-18.3c-8.91-13.18-6.78-27-.8-40.2-3.92-1.69-8.64-3.64-11.92-5-5.33,15.35-16.88,28.68-35.07,29.21-5.54-.16-11.09-.47-16.63-1.06,2.66.87,5.37,1.68,8.12,2.39Z" transform="translate(-131.04 -364.73)"/><path class="cls-64" d="M504.42,445.31c.28.21.57.41.86.61,2.16,1.09,4.21,2.23,6.07,3.23,1.59.87,3.13,1.81,4.63,2.78l4.56-5.66c-.71-.53-1.4-1.08-2.09-1.62-3.56-1.79-7.07-3.68-10.52-5.74Z" transform="translate(-131.04 -364.73)"/><path class="cls-56" d="M504.42,445.31c.28.21.57.41.86.61,2.16,1.09,4.21,2.23,6.07,3.23,1.59.87,3.13,1.81,4.63,2.78l4.56-5.66c-.71-.53-1.4-1.08-2.09-1.62-3.56-1.79-7.07-3.68-10.52-5.74Z" transform="translate(-131.04 -364.73)"/><path class="cls-65" d="M475,501.6l-.05,0,.17.11Z" transform="translate(-131.04 -364.73)"/><path class="cls-66" d="M475,501.6l-.05,0,.17.11Z" transform="translate(-131.04 -364.73)"/><path class="cls-56" d="M357.26,416c-1.75.37-3.5.78-5.25,1.31-1.45.43-3,.89-4.65,1.4,7.76-1.38,16.19-3.32,24.63-2.15l2.84,2.2c4.27,4.37,2.84,11.4,2.37,17.11-3.66,14.86-6.47,29.73-13.12,43.4,3.41-.65,6.85-1.18,10.34-1.59a145,145,0,0,1,15.11-31.74c6.63-3.07,7.57,6.14,11.37,9.22,3.7,7.68,7.81,14.95,9.77,22.61q5.22.64,10.32,1.65a199.58,199.58,0,0,1-13.91-46.2c-.49-4.82-1-10.1,2.82-13.59,6.66-4,17.45-2.55,25.13-1.77,1.65.17,3.26.43,4.85.71-4.21-1.05-8.41-1.83-12.33-2.77l.79-7.26c2,.3,4,.54,6,.76-7.06-2.31-13.76-5.07-19.65-7.67-13.29-8.76-16.6-22.36-16.13-36.84-4.27-.06-9.37-.06-12.92-.06.95,16.22-4.62,33-21.21,40.4q-5.75,2.19-11.61,4.09c1.23-.14,2.45-.29,3.68-.47Z" transform="translate(-131.04 -364.73)"/><path class="cls-67" d="M344.87,419.12l2.49-.42c1.62-.5,3.2-1,4.65-1.4,1.75-.53,3.5-.94,5.25-1.31l-.78-7.23c-1.23.17-2.45.33-3.68.47-3.28,1.06-6.6,2-10,2.88Z" transform="translate(-131.04 -364.73)"/><path class="cls-56" d="M344.87,419.12l2.49-.42c1.62-.5,3.2-1,4.65-1.4,1.75-.53,3.5-.94,5.25-1.31l-.78-7.23c-1.23.17-2.45.33-3.68.47-3.28,1.06-6.6,2-10,2.88Z" transform="translate(-131.04 -364.73)"/><path class="cls-68" d="M427.55,415.81c3.92.94,8.12,1.71,12.33,2.77l.5.08,2.05-7c-2.75-.71-5.46-1.52-8.12-2.39q-3-.32-6-.76Z" transform="translate(-131.04 -364.73)"/><path class="cls-56" d="M427.55,415.81c3.92.94,8.12,1.71,12.33,2.77l.5.08,2.05-7c-2.75-.71-5.46-1.52-8.12-2.39q-3-.32-6-.76Z" transform="translate(-131.04 -364.73)"/><path class="cls-69" d="M246.48,655.16a3.38,3.38,0,0,0,0-.64l-1.28-.62c.13.72.27,1.44.41,2.15C245.89,655.75,246.2,655.46,246.48,655.16Z" transform="translate(-131.04 -364.73)"/><path class="cls-70" d="M267.83,543l-.09.14h.14A1.21,1.21,0,0,1,267.83,543Z" transform="translate(-131.04 -364.73)"/><path class="cls-71" d="M515.53,543.07l1,0-.91-1.34c-.09.24-.2.48-.29.73A2.84,2.84,0,0,0,515.53,543.07Z" transform="translate(-131.04 -364.73)"/><path class="cls-72" d="M363.67,480.12l.41-.86-1.5.29.57.56A3.06,3.06,0,0,0,363.67,480.12Z" transform="translate(-131.04 -364.73)"/><path class="cls-73" d="M245.47,642.91c.1.13.21.24.31.37a25.44,25.44,0,0,0,.64,10.86v0l.53,0a25.24,25.24,0,0,0,2,11.56.39.39,0,0,0,0,.09s0,0,0,0-.08-.2-.13-.29l-.83.65q1,3.68,2.22,7.28c2.54,1.46,5.11,2.87,7.69,4.26a143.72,143.72,0,1,1,268.41,0c2.59-1.38,5.16-2.8,7.69-4.26.9-2.69,1.71-5.41,2.46-8.17l-1.22-1.07-.44,1.29c0-.16-.1-.31-.14-.46a29.17,29.17,0,0,0,1.7-3.3,27.08,27.08,0,0,0,1.92-7.37l.58.65.24-1.23-1.28.55a3.17,3.17,0,0,0-.35,1l-.52-.15a25.1,25.1,0,0,0,2.59-11.46s0-.06,0-.11l0,0c0,.09,0,.21,0,.31.36-.09.71-.2,1.07-.3a150.53,150.53,0,0,0-.15-36.06l-1.79-.61.09,1.36-.31-.37a25.9,25.9,0,0,0,.3-3.7,27.06,27.06,0,0,0-1-7.55l1.09.53c-.12-.59-.23-1.17-.35-1.76-.3.32-.62.62-.92.94a3.38,3.38,0,0,0,0,1l-.53.06a25.41,25.41,0,0,0-2-11.57s0-.06-.06-.09l0,0a1.85,1.85,0,0,1,.13.29c.29-.21.57-.44.85-.66a148.46,148.46,0,0,0-14-33.28l-1.81.12.6,1.23c-.15-.09-.29-.14-.43-.23a26.6,26.6,0,0,0-1.12-3.53,27.15,27.15,0,0,0-3.57-6.17l-.42.23a25.23,25.23,0,0,0-6.29-9.91s-.05,0-.08-.07v0a2.25,2.25,0,0,0,.24.21l.27-.48a150.47,150.47,0,0,0-25.9-25.6l-1.12.55,1,.9-.48-.06a27.94,27.94,0,0,0-2.39-2.82,27.17,27.17,0,0,0-5.14-4l-.17.2c-.2-.23-.41-.45-.62-.68l-.14-.09.05,0c-.4-.43-.83-.84-1.27-1.25a148.84,148.84,0,0,0-41.44-18.56l-.46.53,1.29.44-.47.14a26.18,26.18,0,0,0-3.3-1.69c-.5-.21-1-.38-1.47-.55q-3.18-.76-6.4-1.4c.11.24.21.49.31.73a3.27,3.27,0,0,0,1,.35l-.15.51a25.35,25.35,0,0,0-11.46-2.58h-.11a0,0,0,0,0,0,0,1.72,1.72,0,0,1,.31,0c0-.21-.12-.42-.17-.63a150.54,150.54,0,0,0-36.24-.09c-.18.54-.37,1.06-.54,1.6l1.36-.09c-.13.09-.25.21-.37.31a26,26,0,0,0-3.7-.3,27.21,27.21,0,0,0-7,.91l.05.5a25.23,25.23,0,0,0-11.58,2l-.09,0h0l.29-.14c-.13-.18-.28-.35-.41-.52a148.93,148.93,0,0,0-33.53,13.8c0,.56.07,1.12.11,1.68l1.21-.61c-.08.14-.14.29-.22.44a25.4,25.4,0,0,0-3.54,1.13,27.16,27.16,0,0,0-6.57,3.86l.06-1c-.69.45-1.37.91-2,1.38l.93.38a3.83,3.83,0,0,0,.93-.44l.26.47a25.24,25.24,0,0,0-9.93,6.29s0,0-.06.07h0a2.29,2.29,0,0,0,.21-.23l-.67-.38A150.32,150.32,0,0,0,274,534.54c.23.46.45.93.69,1.39l.89-1c0,.16,0,.32-.05.48a28,28,0,0,0-2.83,2.4,26.88,26.88,0,0,0-3.74,4.67l.41.33a25.11,25.11,0,0,0-6.77,9.6.32.32,0,0,0,0,.09h0c0-.1.08-.2.11-.3l-.41-.05a148.63,148.63,0,0,0-14.05,33.57c.38.33.74.66,1.12,1l.43-1.29c0,.15.1.3.15.45a29.33,29.33,0,0,0-1.7,3.31,27.16,27.16,0,0,0-1.92,7.37l-.57-.63c-.1.47-.18,1-.28,1.42l1-.44a3,3,0,0,0,.34-1l.52.15a25.19,25.19,0,0,0-2.58,11.46.28.28,0,0,0,0,.09l0,0c0-.11,0-.22,0-.32-.31.07-.62.18-.93.26a150.4,150.4,0,0,0-.13,36l1.93.65Z" transform="translate(-131.04 -364.73)"/><path class="cls-74" d="M309.89,502.26a27,27,0,0,1,6.57-3.86,25.4,25.4,0,0,1,3.54-1.13c.08-.15.14-.3.22-.44l-1.21.61c-.05-.56-.07-1.12-.11-1.68q-4.57,2.58-8.95,5.46C309.93,501.57,309.92,501.92,309.89,502.26Z" transform="translate(-131.04 -364.73)"/><path class="cls-75" d="M309.89,502.26a27,27,0,0,1,6.57-3.86,25.4,25.4,0,0,1,3.54-1.13c.08-.15.14-.3.22-.44l-1.21.61c-.05-.56-.07-1.12-.11-1.68q-4.57,2.58-8.95,5.46C309.93,501.57,309.92,501.92,309.89,502.26Z" transform="translate(-131.04 -364.73)"/><path class="cls-76" d="M363.67,480.12a3.06,3.06,0,0,1-.52,0l-.57-.56q-5.15,1-10.16,2.41c.13.18.28.34.41.52l-.29.14h0l.09,0a25.36,25.36,0,0,1,11.58-2l-.05-.5-.58.14S363.65,480.16,363.67,480.12Z" transform="translate(-131.04 -364.73)"/><path class="cls-77" d="M363.67,480.12a3.06,3.06,0,0,1-.52,0l-.57-.56q-5.15,1-10.16,2.41c.13.18.28.34.41.52l-.29.14h0l.09,0a25.36,25.36,0,0,1,11.58-2l-.05-.5-.58.14S363.65,480.16,363.67,480.12Z" transform="translate(-131.04 -364.73)"/><path class="cls-78" d="M267.87,543.17h.37a3.07,3.07,0,0,0,.69-.77h0a27.26,27.26,0,0,1,3.74-4.67,29.31,29.31,0,0,1,2.83-2.4c0-.16,0-.32.05-.48l-.89,1c-.24-.46-.45-.92-.69-1.39q-3.23,4.15-6.17,8.54A1.21,1.21,0,0,1,267.87,543.17Z" transform="translate(-131.04 -364.73)"/><path class="cls-79" d="M267.87,543.17h.37a3.07,3.07,0,0,0,.69-.77h0a27.26,27.26,0,0,1,3.74-4.67,29.31,29.31,0,0,1,2.83-2.4c0-.16,0-.32.05-.48l-.89,1c-.24-.46-.45-.92-.69-1.39q-3.23,4.15-6.17,8.54A1.21,1.21,0,0,1,267.87,543.17Z" transform="translate(-131.04 -364.73)"/><path class="cls-80" d="M300.2,509.13l-.21.23h0s0-.05.06-.07A25.31,25.31,0,0,1,310,503l-.26-.47a3.65,3.65,0,0,1-.93.44l-.93-.38q-4.29,2.93-8.37,6.15C299.75,508.88,300,509,300.2,509.13Z" transform="translate(-131.04 -364.73)"/><path class="cls-81" d="M300.2,509.13l-.21.23h0s0-.05.06-.07A25.31,25.31,0,0,1,310,503l-.26-.47a3.65,3.65,0,0,1-.93.44l-.93-.38q-4.29,2.93-8.37,6.15C299.75,508.88,300,509,300.2,509.13Z" transform="translate(-131.04 -364.73)"/><path class="cls-82" d="M246.25,596.5a26.71,26.71,0,0,1,1.92-7.37,28.5,28.5,0,0,1,1.7-3.31c0-.15-.1-.3-.15-.45l-.43,1.29c-.38-.32-.75-.66-1.12-1q-1.41,5-2.48,10.2Z" transform="translate(-131.04 -364.73)"/><path class="cls-83" d="M246.25,596.5a26.71,26.71,0,0,1,1.92-7.37,28.5,28.5,0,0,1,1.7-3.31c0-.15-.1-.3-.15-.45l-.43,1.29c-.38-.32-.75-.66-1.12-1q-1.41,5-2.48,10.2Z" transform="translate(-131.04 -364.73)"/><path class="cls-84" d="M267.87,543.17h-.14c-1.94,2.9-3.79,5.88-5.52,8.92l.41,0c0,.1-.08.21-.11.3h0s0-.07,0-.09a25,25,0,0,1,6.77-9.6l-.41-.33c-.3.47-.58.94-.85,1.42C268,543.61,268,543.39,267.87,543.17Z" transform="translate(-131.04 -364.73)"/><path class="cls-85" d="M267.87,543.17h-.14c-1.94,2.9-3.79,5.88-5.52,8.92l.41,0c0,.1-.08.21-.11.3h0s0-.07,0-.09a25,25,0,0,1,6.77-9.6l-.41-.33c-.3.47-.58.94-.85,1.42C268,543.61,268,543.39,267.87,543.17Z" transform="translate(-131.04 -364.73)"/><path class="cls-86" d="M268.25,543.17h-.37c.07.22.16.43.23.65.26-.47.55-1,.85-1.42h0A3.31,3.31,0,0,1,268.25,543.17Z" transform="translate(-131.04 -364.73)"/><path class="cls-87" d="M268.25,543.17h-.37c.07.22.16.43.23.65.26-.47.55-1,.85-1.42h0A3.31,3.31,0,0,1,268.25,543.17Z" transform="translate(-131.04 -364.73)"/><path class="cls-88" d="M268.25,543.17h-.37c.07.22.16.43.23.65.26-.47.55-1,.85-1.42h0A3.31,3.31,0,0,1,268.25,543.17Z" transform="translate(-131.04 -364.73)"/><path class="cls-89" d="M244.71,607.62l0,0a.28.28,0,0,1,0-.09A25.19,25.19,0,0,1,247.31,596l-.52-.15a3.32,3.32,0,0,1-.34,1l-1,.44c-.66,3.38-1.21,6.81-1.64,10.27l.93-.26C244.71,607.4,244.7,607.51,244.71,607.62Z" transform="translate(-131.04 -364.73)"/><path class="cls-90" d="M244.71,607.62l0,0a.28.28,0,0,1,0-.09A25.19,25.19,0,0,1,247.31,596l-.52-.15a3.32,3.32,0,0,1-.34,1l-1,.44c-.66,3.38-1.21,6.81-1.64,10.27l.93-.26C244.71,607.4,244.7,607.51,244.71,607.62Z" transform="translate(-131.04 -364.73)"/><path class="cls-91" d="M246.43,654.15a27.37,27.37,0,0,1-1-7.16,25.76,25.76,0,0,1,.31-3.7c-.1-.13-.21-.24-.31-.37l.09,1.35-1.93-.65q.6,5.21,1.56,10.29c.43.21.86.4,1.28.62C246.46,654.39,246.45,654.27,246.43,654.15Z" transform="translate(-131.04 -364.73)"/><path class="cls-92" d="M246.43,654.15a27.37,27.37,0,0,1-1-7.16,25.76,25.76,0,0,1,.31-3.7c-.1-.13-.21-.24-.31-.37l.09,1.35-1.93-.65q.6,5.21,1.56,10.29c.43.21.86.4,1.28.62C246.46,654.39,246.45,654.27,246.43,654.15Z" transform="translate(-131.04 -364.73)"/><path class="cls-93" d="M249,665.77s0,0,0,0a.19.19,0,0,1,0-.09,25.26,25.26,0,0,1-2-11.56l-.53,0v0c0,.13.06.26.1.39l-.05,0a3.38,3.38,0,0,1,0,.64c-.29.3-.59.59-.88.9q1,5.1,2.42,10.08l.83-.65C248.91,665.57,248.94,665.68,249,665.77Z" transform="translate(-131.04 -364.73)"/><path class="cls-94" d="M249,665.77s0,0,0,0a.19.19,0,0,1,0-.09,25.26,25.26,0,0,1-2-11.56l-.53,0v0c0,.13.06.26.1.39l-.05,0a3.38,3.38,0,0,1,0,.64c-.29.3-.59.59-.88.9q1,5.1,2.42,10.08l.83-.65C248.91,665.57,248.94,665.68,249,665.77Z" transform="translate(-131.04 -364.73)"/><path class="cls-95" d="M246.43,654.15c0,.12,0,.24,0,.37l.05,0C246.49,654.41,246.46,654.28,246.43,654.15Z" transform="translate(-131.04 -364.73)"/><path class="cls-96" d="M246.43,654.15c0,.12,0,.24,0,.37l.05,0C246.49,654.41,246.46,654.28,246.43,654.15Z" transform="translate(-131.04 -364.73)"/><path class="cls-97" d="M246.43,654.15c0,.12,0,.24,0,.37l.05,0C246.49,654.41,246.46,654.28,246.43,654.15Z" transform="translate(-131.04 -364.73)"/><path class="cls-98" d="M536.39,661.71a27.61,27.61,0,0,1-1.7,3.3c0,.16.1.3.14.46l.44-1.29,1.22,1.07q1.37-5.07,2.39-10.27l-.58-.65A27,27,0,0,1,536.39,661.71Z" transform="translate(-131.04 -364.73)"/><path class="cls-99" d="M536.39,661.71a27.61,27.61,0,0,1-1.7,3.3c0,.16.1.3.14.46l.44-1.29,1.22,1.07q1.37-5.07,2.39-10.27l-.58-.65A27,27,0,0,1,536.39,661.71Z" transform="translate(-131.04 -364.73)"/><path class="cls-100" d="M539.57,643.53l0,0s0,.07,0,.11A25.1,25.1,0,0,1,537,655.12l.52.15a3.17,3.17,0,0,1,.35-1l1.28-.55q.95-5.06,1.54-10.21c-.36.1-.71.21-1.07.3C539.58,643.74,539.58,643.62,539.57,643.53Z" transform="translate(-131.04 -364.73)"/><path class="cls-101" d="M539.57,643.53l0,0s0,.07,0,.11A25.1,25.1,0,0,1,537,655.12l.52.15a3.17,3.17,0,0,1,.35-1l1.28-.55q.95-5.06,1.54-10.21c-.36.1-.71.21-1.07.3C539.58,643.74,539.58,643.62,539.57,643.53Z" transform="translate(-131.04 -364.73)"/><path class="cls-102" d="M538.8,604.16a25.9,25.9,0,0,1-.3,3.7l.31.37-.09-1.36c.6.19,1.19.41,1.79.61q-.64-5.24-1.67-10.34c-.36-.18-.73-.34-1.09-.53A27.06,27.06,0,0,1,538.8,604.16Z" transform="translate(-131.04 -364.73)"/><path class="cls-103" d="M538.8,604.16a25.9,25.9,0,0,1-.3,3.7l.31.37-.09-1.36c.6.19,1.19.41,1.79.61q-.64-5.24-1.67-10.34c-.36-.18-.73-.34-1.09-.53A27.06,27.06,0,0,1,538.8,604.16Z" transform="translate(-131.04 -364.73)"/><path class="cls-104" d="M515.53,543.07c.07.13.14.26.21.37l0,0a27.37,27.37,0,0,1,3.57,6.17,26.6,26.6,0,0,1,1.12,3.53c.14.09.28.14.43.23l-.6-1.23c.6,0,1.2-.08,1.81-.12q-2.61-4.56-5.53-8.92Z" transform="translate(-131.04 -364.73)"/><path class="cls-105" d="M515.53,543.07c.07.13.14.26.21.37l0,0a27.37,27.37,0,0,1,3.57,6.17,26.6,26.6,0,0,1,1.12,3.53c.14.09.28.14.43.23l-.6-1.23c.6,0,1.2-.08,1.81-.12q-2.61-4.56-5.53-8.92Z" transform="translate(-131.04 -364.73)"/><path class="cls-106" d="M535.17,586c0-.09-.08-.2-.13-.29l0,0s.05,0,.06.09a25.41,25.41,0,0,1,2,11.57l.53-.06a2.85,2.85,0,0,1,0-1c.3-.32.62-.63.92-.94q-1.07-5.1-2.47-10.06C535.74,585.54,535.46,585.78,535.17,586Z" transform="translate(-131.04 -364.73)"/><path class="cls-107" d="M535.17,586c0-.09-.08-.2-.13-.29l0,0s.05,0,.06.09a25.41,25.41,0,0,1,2,11.57l.53-.06a2.85,2.85,0,0,1,0-1c.3-.32.62-.63.92-.94q-1.07-5.1-2.47-10.06C535.74,585.54,535.46,585.78,535.17,586Z" transform="translate(-131.04 -364.73)"/><path class="cls-108" d="M474.46,501.78l.14.09-.09-.1Z" transform="translate(-131.04 -364.73)"/><path class="cls-109" d="M474.46,501.78l.14.09-.09-.1Z" transform="translate(-131.04 -364.73)"/><path class="cls-110" d="M515.53,543.07a2.33,2.33,0,0,1-.22-.56c.09-.24.2-.48.29-.73q-2.94-4.31-6.17-8.38c-.09.16-.17.32-.27.48-.08-.06-.16-.14-.24-.21v0s.06,0,.08.07a25.3,25.3,0,0,1,6.29,9.91l.42-.23-.29-.4Z" transform="translate(-131.04 -364.73)"/><path class="cls-111" d="M515.53,543.07a2.33,2.33,0,0,1-.22-.56c.09-.24.2-.48.29-.73q-2.94-4.31-6.17-8.38c-.09.16-.17.32-.27.48-.08-.06-.16-.14-.24-.21v0s.06,0,.08.07a25.3,25.3,0,0,1,6.29,9.91l.42-.23-.29-.4Z" transform="translate(-131.04 -364.73)"/><path class="cls-112" d="M475.57,502.14l-.17.2a27.08,27.08,0,0,1,5.14,4,27.94,27.94,0,0,1,2.39,2.82c.17,0,.33,0,.48.06l-1-.9,1.12-.55q-4.11-3.18-8.43-6.07A5.65,5.65,0,0,0,475.57,502.14Z" transform="translate(-131.04 -364.73)"/><path class="cls-113" d="M475.57,502.14l-.17.2a27.08,27.08,0,0,1,5.14,4,27.94,27.94,0,0,1,2.39,2.82c.17,0,.33,0,.48.06l-1-.9,1.12-.55q-4.11-3.18-8.43-6.07A5.65,5.65,0,0,0,475.57,502.14Z" transform="translate(-131.04 -364.73)"/><path class="cls-114" d="M515.53,543.07h-.12l.29.4,0,0C515.67,543.33,515.6,543.2,515.53,543.07Z" transform="translate(-131.04 -364.73)"/><path class="cls-115" d="M515.53,543.07h-.12l.29.4,0,0C515.67,543.33,515.6,543.2,515.53,543.07Z" transform="translate(-131.04 -364.73)"/><path class="cls-116" d="M515.53,543.07h-.12l.29.4,0,0C515.67,543.33,515.6,543.2,515.53,543.07Z" transform="translate(-131.04 -364.73)"/><path class="cls-117" d="M428.86,481.36a27.58,27.58,0,0,1,3.3,1.69l.47-.14-1.29-.44.46-.53q-2.19-.6-4.41-1.14Z" transform="translate(-131.04 -364.73)"/><path class="cls-118" d="M428.86,481.36a27.58,27.58,0,0,1,3.3,1.69l.47-.14-1.29-.44.46-.53q-2.19-.6-4.41-1.14Z" transform="translate(-131.04 -364.73)"/><path class="cls-119" d="M475.23,502.55l.17-.2-.79-.48C474.82,502.09,475,502.31,475.23,502.55Z" transform="translate(-131.04 -364.73)"/><path class="cls-120" d="M475.23,502.55l.17-.2-.79-.48C474.82,502.09,475,502.31,475.23,502.55Z" transform="translate(-131.04 -364.73)"/><path class="cls-121" d="M473.24,500.52c.45.4.87.82,1.27,1.25l.41-.14Z" transform="translate(-131.04 -364.73)"/><path class="cls-122" d="M473.24,500.52c.45.4.87.82,1.27,1.25l.41-.14Z" transform="translate(-131.04 -364.73)"/><path class="cls-123" d="M475.09,501.73l-.17-.11-.41.14.09.1c.27.15.53.32.79.48l.17-.2A5.5,5.5,0,0,1,475.09,501.73Z" transform="translate(-131.04 -364.73)"/><path class="cls-124" d="M475.09,501.73l-.17-.11-.41.14.09.1c.27.15.53.32.79.48l.17-.2A5.5,5.5,0,0,1,475.09,501.73Z" transform="translate(-131.04 -364.73)"/><path class="cls-125" d="M475.09,501.73l-.17-.11-.41.14.09.1c.27.15.53.32.79.48l.17-.2A5.5,5.5,0,0,1,475.09,501.73Z" transform="translate(-131.04 -364.73)"/><path class="cls-126" d="M410.84,478.4a1.67,1.67,0,0,0-.31,0,0,0,0,0,1,0,0,.2.2,0,0,1,.11,0A25.35,25.35,0,0,1,422.12,481l.15-.51a3.17,3.17,0,0,1-1-.35c-.11-.24-.21-.49-.31-.73q-5.1-1-10.32-1.65C410.72,478,410.79,478.19,410.84,478.4Z" transform="translate(-131.04 -364.73)"/><path class="cls-127" d="M410.84,478.4a1.67,1.67,0,0,0-.31,0,0,0,0,0,1,0,0,.2.2,0,0,1,.11,0A25.35,25.35,0,0,1,422.12,481l.15-.51a3.17,3.17,0,0,1-1-.35c-.11-.24-.21-.49-.31-.73q-5.1-1-10.32-1.65C410.72,478,410.79,478.19,410.84,478.4Z" transform="translate(-131.04 -364.73)"/><path class="cls-128" d="M363.67,480.12a2.84,2.84,0,0,0,.52-.07v0a27.21,27.21,0,0,1,7-.91,26,26,0,0,1,3.7.3c.12-.09.25-.21.37-.31l-1.36.09c.17-.54.36-1.07.54-1.6q-5.22.61-10.34,1.59C364,479.55,363.81,479.84,363.67,480.12Z" transform="translate(-131.04 -364.73)"/><path class="cls-129" d="M363.67,480.12a2.84,2.84,0,0,0,.52-.07v0a27.21,27.21,0,0,1,7-.91,26,26,0,0,1,3.7.3c.12-.09.25-.21.37-.31l-1.36.09c.17-.54.36-1.07.54-1.6q-5.22.61-10.34,1.59C364,479.55,363.81,479.84,363.67,480.12Z" transform="translate(-131.04 -364.73)"/><path class="cls-130" d="M363.67,480.12l-.05.11.58-.14v0A2.33,2.33,0,0,1,363.67,480.12Z" transform="translate(-131.04 -364.73)"/><path class="cls-131" d="M363.67,480.12l-.05.11.58-.14v0A2.33,2.33,0,0,1,363.67,480.12Z" transform="translate(-131.04 -364.73)"/><path class="cls-132" d="M363.67,480.12l-.05.11.58-.14v0A2.33,2.33,0,0,1,363.67,480.12Z" transform="translate(-131.04 -364.73)"/><path class="cls-133" d="M570.32,626.14A178.19,178.19,0,0,1,392.14,804.32C293.75,804.32,214,724.54,214,626.14a178.18,178.18,0,0,1,356.35,0Z" transform="translate(-131.04 -364.73)"/><path class="cls-1" d="M458.24,543.42c4-.52,8-6.54,8-6.54s6-8.63,19.47-7.85,16.73,5.23,17.48,8.11,5.24,3.66,10.74,3.4a10.25,10.25,0,0,1,8.49,4.19s4.75.78,8.24,1.57,0-3.14-.5-4.71a13.48,13.48,0,0,1-.75-6.54c.5-2.35,9.49,2.09,13.23,2.88s2.5-3.14,2.5-3.14l2.5-.52-7.52-11.57c-.17-.23-.34-.46-.5-.7l-1.22,1.28-3.5-6.28-3-.26-2.25,2.88L527.39,517l-3.5-1-4.74-3.66-3.75-4.45-1.75-1,1.75,4.71,4.49,4.19s1.75,3.66,1.75,4.71-4.24-.52-5.24-.78-5.74-4.45-5.74-4.45l-4.24-4.45-6-4.45s-12-7.59-13.48-7.59S474.72,495,474.72,495l3.75,3.66,8.24,4.71s7.74,2.62,10.74,3.92a15.3,15.3,0,0,1,5,3.66l-1.5.78,2.25,5.76-4.74-5.23s-7-4.45-11.24-4.45-10-3.66-11.49-4.19-6.24-4.19-6.24-2.62-4.49,1.57-8.74,3.4-.5,6.54-.5,6.54l-3,3.4L456,519.07l1.75,5.76,1,5.23-.75,5.49s-.25,1.83-3.75,2.09-6,3.4-6.24,4.71a.41.41,0,0,1-.07.15c.44.22,1.58.3,1.31.61a7,7,0,0,0-.77,1.08h0C450.25,543.69,454.25,544,458.24,543.42Z" transform="translate(-131.04 -364.73)"/><path class="cls-1" d="M441.4,538.69a9.82,9.82,0,0,1-1.69-1.75,15.31,15.31,0,0,1-1.54-3.79c.44-6-1.89-10.29-4.49-13.84a2.41,2.41,0,0,0-2.12-1l-4.23-4.81a6.21,6.21,0,0,0-2.75,1,13.71,13.71,0,0,1-4.2,2.47s3.21,3.46,5.19,5.93S428,534.27,428,534.27l4.94,2.47s1.73,4.2,2.72,4.45,5.43-.74,6.67-.74c.89,0,3.33,1.55,4.62,2.41.46,0,.81-.07,1-.31l-.05,0Z" transform="translate(-131.04 -364.73)"/><path class="cls-1" d="M539.64,522l0,0c.17.23.34.46.5.7Z" transform="translate(-131.04 -364.73)"/><path class="cls-1" d="M447.94,542.53c-.14.24-.5.33-1,.31l.82.56-3.58.83,1.79,4.43s.74-3.89,2.47-4.44a7,7,0,0,1,.77-1.08C449.52,542.83,448.38,542.75,447.94,542.53Z" transform="translate(-131.04 -364.73)"/><path class="cls-1" d="M447,542.84a14.48,14.48,0,0,1-3.72-1l1,2.37,3.58-.83Z" transform="translate(-131.04 -364.73)"/><path class="cls-134" d="M571.84,626.15a179.7,179.7,0,1,1-179.7-179.7A179.69,179.69,0,0,1,571.84,626.15Z" transform="translate(-131.04 -364.73)"/><path class="cls-135" d="M305.61,619.94c4,.63,6.57-1.43,9.39-2.59l5.31-2.77a3.53,3.53,0,0,1,4.19.87,3.48,3.48,0,0,0,4.18-1.45c.86-1.21,2.23-2,3.5-3.12a22.12,22.12,0,0,0,3.86-.47,21.35,21.35,0,0,1,11,6c5.35,1.93,9.59,5.33,14.44,8.13,4.74,1.4,9.32,3.1,12.06,6.33.93,3,3.88,4,7.51,4a51.07,51.07,0,0,1,8.33.37c2.28,1,4,2.76,6.79,3.78a32.94,32.94,0,0,1,6,.79c2.9,1.87,6.17,4.22,8.31,7.58a4.71,4.71,0,0,1-.13,2.92c-3.51,4.74-5.12,11.26-6.77,17.92a29.41,29.41,0,0,1-3.37,8.66c-1.22,1.92-3.36,2.88-5.2,4.19-2.77,2-6.15,3.4-8.08,5.76a139.83,139.83,0,0,0-6.5,20.7c-.42,1.75-2.51,2.59-4.69,2.46-4.59.69-7.31,3.58-8.25,7.86-.56,2.52-2.4,3.85-4.75,4.61a4,4,0,0,0-2.67,3.92c-.1,2.13-.47,3.71-1.55,4.81a3,3,0,0,0-.7,3.08,22.92,22.92,0,0,1,3.77,9.25c-1.08,2.83,1.26,4.54,2.6,5.95a4.36,4.36,0,0,1,.94,4.48,7,7,0,0,1-2.95,1,18.15,18.15,0,0,1-7.49-.44c-2.5-.74-3.65-3.07-4.65-5.44-1.47-3.53-3.39-6.8-4.34-10.86,0-4.38-2.53-6.43-3.58-9.56a50.2,50.2,0,0,1-2.36-15.86,16.49,16.49,0,0,0-3.74-7.51,19.07,19.07,0,0,1-2.82-4.43,17.85,17.85,0,0,0-2.41-11.81l-1-9.08c-1.59-2.84-4.65-4-7.19-5.73a47.2,47.2,0,0,0-6.77-3.3c-3.17-2.33-4.44-6.39-5.9-10.32-1-2.68-2.65-4.73-3.94-7.1-.37-3.37.44-5.84.58-8.81.06-1.53.16-3.38.25-4.89,1.32-1.69,2.58-3.24,3-5.45.58-3.17-.39-5.67-2.08-7.09a4.44,4.44,0,0,0-2.57-.86c-4.9-.37-8.22-2.44-11.44-4.39a11.79,11.79,0,0,1-3-1.92,25.6,25.6,0,0,0-14-8.44c-4.71-3-10.72-4-15.66-6.4-3.56-1.73-5.23-5.46-6.51-9.73-.69-2.29-1.92-4.26-4.42-4.92-3.13-2.19-5.15-5.72-5.56-10.74-.8-2.65-2.54-4.31-3.53-6.69a4.83,4.83,0,0,1,0-3.35,22.59,22.59,0,0,0-.85-14.92,16.62,16.62,0,0,1-.05-3.86c.66-4.57,1.48-8.44,3.73-11.36a6,6,0,0,0,.51-4.67,8.26,8.26,0,0,1,3.08-9.11,4.11,4.11,0,0,0,1.67-4.32c1.18-2.46,2-4.73,3.82-6,.35-1.88,1.53-3.16,2.29-4.65,3.51-6.86,9-12.35,14.51-17.21,4.22-3.72,8.25-7.1,12.81-10.47l8.47-6.55,12.35-7.56a109.78,109.78,0,0,1,13.46-6.59,5.49,5.49,0,0,1,2.48-.28c.9,2.37,2.56,4.16,3.82,6.66a12.18,12.18,0,0,1,3.56.06,18.21,18.21,0,0,1,3.12,1.72c.57.28,1.44-.17,1.67.39a8.79,8.79,0,0,0,2.61,3.17,55.58,55.58,0,0,0,6.14,5.21c2.43,0,4.69.76,5.28,2.32a6.94,6.94,0,0,1,.42,1.38,18.87,18.87,0,0,1-2.69,12.1,1.52,1.52,0,0,1-1.7.61c-2.14-.41-3.27-2.12-4.11-3.85-.71-1.49-1.16-3.35-2.5-4.25a5.49,5.49,0,0,0-2.31-.71,2.59,2.59,0,0,0-2.6,2.11,3.39,3.39,0,0,1-.82,1.89c-1.16,1.06-3.2,1.11-4.46,2.08a3.69,3.69,0,0,0-1.23,3.28c-1,4-5,6.37-9.73,5.36a10.22,10.22,0,0,0-8.15,1.93c-.42,1.31.19,2.63-.17,3.87-.14.51-1.07,1.87-1.19,2.38-.18.76.61,1.17,1.19,1.4a37.6,37.6,0,0,0,3.54,1.45l2.87,3.52c.4.42,1.23.79,1.64.58,2.91-1.52,6.39-2.44,8.77-4.66,2.21-2,3.25-5.34,4.43-8.48.18-.45.73-1,1.08-.95a26.93,26.93,0,0,0,8-.22,7.18,7.18,0,0,1,6,5.44c.54,2.12.15,4.93.77,6.92a29.63,29.63,0,0,0,4.1,4.32c.91.35,2.24.47,2.87,1.4,1.78,2.64,1.56,7.83-1.2,9.3a13.94,13.94,0,0,1-4.26,1.44c-1.65-.47-3.48-1.32-5.73-2.07a17.57,17.57,0,0,0-8.17,4.34c-.33.31-.66,1.23.08,1.44,1.46.42,2.57-.39,3.8-.86a5.41,5.41,0,0,1,3.52-.13,1.42,1.42,0,0,1,.91,1.32,8.22,8.22,0,0,1-1.88,4.86c-2.23,3.35-6,5.32-10,7-3.28,3.34-4.83,8.63-6.73,13.32-3.23,4.23-8.08,6.84-13.32,9.1a3.28,3.28,0,0,0-1.54,4.31,26.61,26.61,0,0,1,2.46,5.62,9.67,9.67,0,0,1-.14,3.08A1.78,1.78,0,0,1,306,584c-2.76.06-3.93-2-5.25-3.65s-2.82-3.66-5-4.7c-4.32-1-7.91.69-10.85,2.38-1.88.5-4.23.62-5.63,1.88a3.19,3.19,0,0,0-.65,2.19,18.22,18.22,0,0,1-2.08,7.77c-.55,1-.43,2.35-.51,3.59l0,3.85a5.85,5.85,0,0,0,1.24,2.56,2.22,2.22,0,0,0,2.66.27c1.82-1.5,3.08-3.84,5.86-4.47a6.4,6.4,0,0,0,2.81.28c1.66.25,2.25,1.53,2.75,2.6.87,1.88.14,4.06-.47,5.72-.19.51-.26,1.29.1,1.5.93.52,1.9.07,2.8-.06,1.89-.25,2.4,1.25,3.49,1.94" transform="translate(-131.04 -364.73)"/><path class="cls-136" d="M413.83,784.7c4.41-.67,7.94.55,11.29,1.12,2.42-.79,4.06-1.75,6.29-2.18,7.6.08,13.09,2.4,18.67,4.5a58.7,58.7,0,0,1,8.33,4.21c-2.76,1.27-5.57,2.5-8.24,3.62-13.06,5.49-28.69,8.63-45.88,9.87a177.15,177.15,0,0,1-77.38-11.36,26.12,26.12,0,0,1-5.48-2.32,13.78,13.78,0,0,1,10.56-6l7.88-1.23c5.21-.19,9,1.29,13.14,2.27a25.6,25.6,0,0,1,6.45.62c5.09-.52,7.65-3.74,10.38-6.63A7.68,7.68,0,0,0,372,777c.66-3.73,3.22-6,6.24-7.5.29-.14,1.1,0,.75,1a33.42,33.42,0,0,0-2,4.74,3.24,3.24,0,0,0,.68,2.71c1.35,1.78,1.67,4.85,2.19,6.65a12.11,12.11,0,0,0,9.23,4.68c2.63.11,4.74,1,7.17,1.26.67.08,1.49.19,1.94-.22Z" transform="translate(-131.04 -364.73)"/><path class="cls-137" d="M377.31,476.26a11.85,11.85,0,0,1,.88-2.86,4.9,4.9,0,0,0,.7-4.48,5.62,5.62,0,0,0-1.22-1.77c-1.36-1-3.22-1.68-4.12-3.22.1-1.69,1.16-2.86,1.76-4.31-2.52-1.58-5.09-3.17-6-6.11a.78.78,0,0,0-1.07-.52c-.67-.6.12-1.42.24-2.18a4.37,4.37,0,0,1-2,.27c-.14,0-.41.36-.43.37-2.77.43-5.6.66-8,1a5.3,5.3,0,0,1-3.84.51,1.26,1.26,0,0,0-1.21.38c-1.88,2.16-2.79,5.23-3.7,8.36-.07.22-.3,1.11.42.74.55.4.66,1.16,1.29,1.38.42.14,1.84,0,2.29.08s1.17,0,1.07.55a5.34,5.34,0,0,1-1.13,2.5c-1.33,1.48-1.63,4.18-.92,6.46a6.08,6.08,0,0,1,.25,4.06,4,4,0,0,0,0,2.95,29.76,29.76,0,0,0,2.21,3.38c1.06,1.81,2.14,3.76,4,4.57l9.9,3.12a1.4,1.4,0,0,0,1.32-.62c.83-1.39,1.71-3,2.75-4.45A54.45,54.45,0,0,0,377.31,476.26Z" transform="translate(-131.04 -364.73)"/><path class="cls-138" d="M309.28,587c-1.72-.29-3.64-.88-5.43-.29a6.26,6.26,0,0,0-.61.21,8.86,8.86,0,0,0-4.12,4.4c.53,1.69,2.24,2.44,4,2.38l12.94-1.87c3.2.54,5.81,1.53,8.75,2.27a4.64,4.64,0,0,0,1.88-.2c.56-.12,1.27-.57,1.18-1.19a5.3,5.3,0,0,0-2.32-3.63c-2.57-.76-5.65-1.13-8.35-2.11Z" transform="translate(-131.04 -364.73)"/><path class="cls-139" d="M382.79,482.66a3.11,3.11,0,0,1,1.16-.28,19.78,19.78,0,0,1,5.5,2.34c.64.39,1.24,1.44.51,2.06a13,13,0,0,1-2.87,1.65h-3.44a8.4,8.4,0,0,1-3.84-2.27A9.25,9.25,0,0,1,382.79,482.66Z" transform="translate(-131.04 -364.73)"/><path class="cls-140" d="M571.55,609.72a216.09,216.09,0,0,0-3.77-24.89,328.58,328.58,0,0,0-11-33.5c-3.77-8.07-9.15-17.07-9.15-17.07l-2.5.52s1.25,3.92-2.5,3.14-12.73-5.23-13.23-2.88a13.46,13.46,0,0,0,.75,6.54c.5,1.57,4,5.49.5,4.71s-8.24-1.57-8.24-1.57a10.25,10.25,0,0,0-8.49-4.19c-5.49.26-10-.52-10.74-3.4s-4-7.33-17.48-8.11-19.47,7.85-19.47,7.85-4,6-8,6.54-8,.26-9.74.78h0c-1.57,2.65-1.93,6.59-2.37,10.45-1.54,3.3-3.49,6.2-3.31,11.15-.62,4.3-1.21,8.73-1.88,12.8-.56,3.35-.31,7.36-.23,11,.09,4.86,2.71,7.37,6.14,9.11l2.44,2.52c1.34,1.82,2.12,4.18,3.42,6,2.5,3.48,4.91,7.07,10.26,7.54a27.66,27.66,0,0,0,10.81-1.43,21.23,21.23,0,0,0,9.71-2.41c3.9-1.15,6.81-3.35,11.73-3.38a5,5,0,0,1,2,.72c3.38,1.6,4.3,5.72,5.38,9.63a13.74,13.74,0,0,0,3.95,8.65c1.81,4.23,2.4,9.59,3.59,14.47.71,2.92,1.88,7.39-.16,9.81a6.37,6.37,0,0,0-1.42,4.83l4.94,11.85c.15,3.43-1.14,6-1.71,8.32a97.06,97.06,0,0,0,1.94,15.56c-.22,3.68-1.58,6.11-2.22,9.3a2.28,2.28,0,0,0,1.07,2.7c6.41-.41,12.47-1.32,19.21-1.77a6.92,6.92,0,0,0,3.7-1.22c1.61-3.42,3.4-6.88,6.62-8.8a17,17,0,0,1,3.57-7.09c1.59-1.73,3.8-2.84,5.43-4.59,1.14-3.87,1.48-8.43,2.92-11.79,1.57-3.67,15.64-16.89,15.64-16.89C572.08,638.73,572.63,623.81,571.55,609.72Z" transform="translate(-131.04 -364.73)"/><path class="cls-141" d="M427.3,463.33l6.42,2.47,3.21,1.24,4.69,2,1.73-1.24-3.21-2.72-7.41-6.18-4.94-.74-4.69-3.21-3.7-2,2.72-.25,6.42,3.21,9.88,3.46,4.94.49,3,2.47,3.46.25-1.48,2L454,469.5,450.77,471s-4.44-1.48-4.2,0-7.41,1.24-7.41,1.24l-2.22-1.73-.74-1.73-3.7-1-2.47,1,6.91,6.92-2.72,3.46.74,3.95-1.23,3.71-2,3-2.22,3a6.25,6.25,0,0,0-5.19,2c-2.47,2.47,1.23,2.47,7.41,4.2s12.84,12.36,12.84,12.36a50.32,50.32,0,0,1-7.16,1.24,65.59,65.59,0,0,0-10.09,1l-5,3.68c-1,.17,3.17,4.83,4.5,6.5,1.11,1.39,1.25,3,1.5,5,.33,2.67.33,4.47.5,4.7,1.62,2.22,5.1.7,4.93,3,.38,1.58,2.14,3.11,2.71,4.19.26.46,4.47-.37,4.69-.25l6.75,2.25.05,0a.41.41,0,0,0,.07-.15c.25-1.31,2.75-4.45,6.24-4.71s3.75-2.09,3.75-2.09l.75-5.49-1-5.23L456,519.1l1.25-4.71,3-3.4s-3.75-4.71.5-6.54,8.74-1.83,8.74-3.4,4.75,2.09,6.24,2.62,7.24,4.19,11.49,4.19,11.24,4.45,11.24,4.45l4.74,5.23L501,511.78l1.5-.78a15.43,15.43,0,0,0-5-3.66c-3-1.31-10.74-3.92-10.74-3.92l-8.24-4.71-3.75-3.66s10.74,3.66,12.23,3.66,13.48,7.59,13.48,7.59l6,4.45,4.24,4.45s4.74,4.19,5.74,4.45,5.24,1.83,5.24.78-1.75-4.71-1.75-4.71l-4.49-4.19-1.75-4.71,1.75,1.05,3.75,4.45L523.9,516l3.5,1,2.25,2.62,2.25-2.88,3,.26,3.5,6.28,1.22-1.28a147.88,147.88,0,0,0-22.4-25c-1-.85-1.73-2.24-3.1-2.63,0,0-12.92-11.19-13.37-11.6a49.19,49.19,0,0,0-5.51-4.4c-22.27-15.09-48.14-26.8-81.33-30.67a1.21,1.21,0,0,0-1.23.75c-.25.56.27,1,.28,1.17a16.33,16.33,0,0,1-1.43,8.41,1.76,1.76,0,0,0,.19,1.21c.71,1.24,1.52,2.38,2.33,3.53,2.37,1.4,4.92,2.64,6.35,3.3C423.6,467.53,427.3,463.33,427.3,463.33Z" transform="translate(-131.04 -364.73)"/><polygon class="cls-142" points="369.94 152.75 364.71 153.27 365.23 156.15 372.29 157.98 372.81 155.89 369.94 152.75"/><polygon class="cls-142" points="347.13 151.12 351.57 156.88 355.23 157.93 354.97 154.79 350.27 149.82 347.91 149.55 347.13 151.12"/><polygon class="cls-142" points="342.25 143.3 345.39 147.23 347.22 147.23 344.35 142.78 342.25 143.3"/><polygon class="cls-143" points="290.97 127.63 296.32 124.16 300.41 122.6 299 120.69 298.05 119.3 294.75 118.78 290.65 117.04 287.66 115.48 285.77 115.31 284.99 112.53 282 112.53 279.48 111.14 278.22 112.88 281.05 114.96 282 117.22 283.26 118.43 285.62 117.91 288.45 118.26 289.71 120.17 287.35 119.82 289.39 121.73 289.39 123.47 291.76 124.33 290.97 127.63"/><polygon class="cls-143" points="282.04 118.98 284.39 120.49 286.57 122.17 287.41 124.02 283.89 126.2 280.7 126.03 280.7 123.35 279.02 122.51 278.51 121.16 279.52 120.83 279.52 119.48 282.04 118.98"/><polygon class="cls-144" points="204.12 227.11 204.12 229.8 198.08 231.14 202.78 232.48 210.16 232.48 215.53 234.49 212.18 229.12 209.49 225.77 204.12 227.11"/><path class="cls-145" d="M228.52,681.41c10.64-1.24,15.61-2.49,15.61-14.19V583.13c-9.93-12.23-12.77-12.78-15.08-12.78v-4.43h37.43L328,641.68h.35V587.92c0-10.64-2.13-16.5-16.49-17.57v-4.43H350v4.43C337.27,572,336.2,576,336.2,584.54V689h-5L252.3,592.88h-.36v71c0,12.77,3.73,16.13,16.86,17.56v4.44H228.53v-4.43Z" transform="translate(-131.04 -364.73)"/><path class="cls-145" d="M434.63,601.57c-3.2-12.41-13.84-32.81-34.77-32.81-9.22,0-19,5.32-19,16.85,0,9.58,3.37,13.48,18.28,20.93l26.07,13a36.72,36.72,0,0,1,19.52,32.65c0,15.61-11.36,37.08-44,37.08-16.86,0-24.84-6-30.34-6-3.73,0-4.62,3.2-5.33,6h-5.14V645.4h5.14c3.55,17.92,13.84,38,36.37,38,21.29,0,22.18-17.56,22.18-19.88,0-11.89-8.34-16.14-19.87-21.65l-11.89-5.67c-30.34-14.55-30.34-29.81-30.34-38,0-10.82,5.5-34.94,39.21-34.94,14.19,0,22.52,5.85,27.67,5.85,4.08,0,5-2.66,5.85-6h5.33v38.49h-5Z" transform="translate(-131.04 -364.73)"/><path class="cls-145" d="M455.19,565.91H555.76v35.66h-4.25c-3.9-18.45-8.69-29.62-39.21-29.62-9.58,0-12.77.71-12.77,8.34v41.15c22,.36,24.66-12.24,27.15-26.43h4.43v60h-4.43c-1.95-14.55-4.79-27.5-27.15-27.5V668.8c0,11.71,7.1,12.07,19.52,12.6v4.44H455.19V681.4c10.12-1.06,15.61-1.6,15.61-12.6V582.94c0-11.7-7.28-12.05-15.61-12.6Z" transform="translate(-131.04 -364.73)"/><path class="cls-146" d="M392.14,446.75a178.86,178.86,0,1,1-69.84,14.1,178.19,178.19,0,0,1,69.84-14.1m0-2.25A181.65,181.65,0,1,0,573.79,626.15,181.65,181.65,0,0,0,392.14,444.5Z" transform="translate(-131.04 -364.73)"/><circle class="cls-147" cx="261.1" cy="261.42" r="179.7"/><path class="cls-148" d="M829.16,629.36c0-124.17,100.66-224.83,224.83-224.83V427c-111.75,0-202.35,90.59-202.35,202.35S942.23,831.71,1054,831.71v22.48c-124.17,0-224.83-100.66-224.83-224.83" transform="translate(-131.04 -364.73)"/><path class="cls-148" d="M874.13,629.36A179.87,179.87,0,0,1,1054,449.5V472a157.38,157.38,0,1,0,0,314.76v22.48A179.87,179.87,0,0,1,874.13,629.36" transform="translate(-131.04 -364.73)"/><path class="cls-148" d="M919.09,629.36A134.9,134.9,0,0,1,1054,494.46v22.48a112.41,112.41,0,0,0,0,224.82v22.48a134.88,134.88,0,0,1-134.9-134.88" transform="translate(-131.04 -364.73)"/><path class="cls-148" d="M964.06,629.36A89.93,89.93,0,0,1,1054,539.43v22.48a67.45,67.45,0,0,0,0,134.9v22.48a89.93,89.93,0,0,1-89.93-89.93" transform="translate(-131.04 -364.73)"/><path class="cls-149" d="M1078.53,716.76V404.53a156.12,156.12,0,1,1,0,312.23" transform="translate(-131.04 -364.73)"/><path class="cls-148" d="M1836.83,855.07c15.39,0,34.63-5.19,47.17-24.59l-13.72-9.7c-8.7,12-21.08,16.23-32.79,16.23-23.25,0-42.15-16.73-42.15-43,0-26.09,18.73-43,42-43,11.54,0,24.25,4.18,33,16.23l13.72-9.7c-12.55-19.4-31.78-24.59-47.17-24.59-33.29,0-60.89,24.42-60.89,61s27.6,61.05,60.89,61.05m-96.35-1.67h18.9V734.64h-18.9Zm-15.72-101.53V734.64h-65.4V853.4h18.9V801.71h42.82V785.65h-42.82V751.86h46.5ZM1622.22,853.4h18.9V734.64h-18.9ZM1560,855.07c15.39,0,34.63-5.19,47.17-24.59l-13.72-9.7c-8.7,12-21.08,16.23-32.79,16.23-23.25,0-42.15-16.73-42.15-43,0-26.09,18.73-43,42-43,11.54,0,24.25,4.18,33,16.23l13.72-9.7C1594.61,738.16,1575.38,733,1560,733c-33.29,0-60.89,24.42-60.89,61s27.61,61.05,60.89,61.05m-137.16-43.49,20.07-53.19L1463,811.58Zm55.87,41.82h20.41l-46.5-118.76H1433L1386.7,853.4h20.41l9.2-24.25h53.19Zm-125.46-57.21H1333.5v-44h19.74c14.55,0,24.25,6.86,24.25,22.08s-9.69,21.91-24.25,21.91m1.84-61.55H1314.6V853.4h18.9V813.76h21.58c25.59,0,41.65-16.06,41.65-39.48,0-23.58-16-39.64-41.65-39.64" transform="translate(-131.04 -364.73)"/><path class="cls-149" d="M1254.89,838.18c-14.22,0-27.27-10.37-27.27-28.27s13.05-28.27,27.27-28.27S1282,792,1282,809.91s-12.88,28.27-27.1,28.27m0,16.89c22.58,0,45.5-15.89,45.5-45.16s-22.92-45.16-45.5-45.16-45.5,15.89-45.5,45.16,22.92,45.16,45.5,45.16m-78.12-1.67h18.4v-87h-18.4Zm0-102.2h18.4V734.64h-18.4Zm-57.54,85.47h-20.91v-40h20.57c15.89,0,23.42,8.36,23.42,20.41s-7.52,19.56-23.08,19.56m-1.5-85.31c11.88,0,17.9,5.69,17.9,14.89s-6,15.72-17.9,15.72h-19.4V751.36Zm19.57,36a25.56,25.56,0,0,0,16.56-24.42c0-15.56-11.71-28.27-32.28-28.27h-42.15V853.4h41c27.1,0,40.65-14.22,40.65-34.46,0-17.73-10.38-28.27-23.76-31.61" transform="translate(-131.04 -364.73)"/><path class="cls-148" d="M1877.26,881.06c-4.69,0-7.69,2.31-9.16,5a8.74,8.74,0,0,0-8.31-5,8.92,8.92,0,0,0-8.11,4.41v-3.89h-5.78v27.35h5.78V893.25c0-4.42,2.42-7,6.16-7s5.79,2.53,5.79,6.94v15.68h5.83V893.24c0-4.42,2.37-6.94,6.1-6.94s5.8,2.53,5.8,6.94v15.68h5.83v-16c0-8.25-4.2-11.87-9.93-11.87m-37.25,0c-5,0-7.73,3.46-8.68,7.57v-7h-5.78v27.35h5.78V896.16c0-5.74,3.52-9.52,8.74-9.52a8.33,8.33,0,0,1,1.68.16v-5.51a5.34,5.34,0,0,0-1.74-.23m-33,23.09a8.9,8.9,0,0,1,0-17.79c4.47,0,8.53,3.26,8.53,8.9s-4.06,8.89-8.53,8.89m0,5.31c7.11,0,14.31-5,14.31-14.2s-7.2-14.2-14.31-14.2-14.3,5-14.3,14.2,7.2,14.2,14.3,14.2m-19.31-34a7.64,7.64,0,0,1,3.16.69v-4.57a9.31,9.31,0,0,0-4.58-1c-3.47,0-8.51,1.37-8.51,8.73v2.37h-3.31v4.68h3.31v22.67h5.83V886.27h7.26v-4.68h-7.26v-1.68c0-3.07,1.47-4.49,4.1-4.49m-15.89,10.84v-4.68h-5.53v-7h-5.83v7h-3.79v4.68h3.79v16c0,4.89,3,6.94,7.1,6.94a7,7,0,0,0,4.26-1.11v-4.57a7.35,7.35,0,0,1-2.53.47c-2.16,0-3-1.21-3-2.78v-15Zm-33.66,17.94c-4.37,0-8.63-3.05-8.63-9s4.26-9,8.63-9,8.68,3.05,8.68,9-4.26,9-8.68,9m-1.11,5.26c5,0,8.47-2.74,9.48-4.89h.16v4.36h5.78V881.58h-5.78v4.36h-.16c-1-2.15-4.47-4.88-9.48-4.88-6.48,0-13.25,4.78-13.25,14.2s6.78,14.2,13.25,14.2m-23.25-.53h5.78V871.58h-5.78Zm-18.15-18h-6.21V877.1h6.21c4.58,0,7.63,2.16,7.63,6.95s-3,6.9-7.63,6.9m.58-19.36H1683.5v37.35h5.94V896.47h6.79c8,0,13.1-5.05,13.1-12.41s-5-12.47-13.1-12.47m-39.51,9.47c-4.42,0-7.32,2.1-8.79,4.62v-4.1h-5.78v27.35h5.78V893.78c0-4.79,2.79-7.47,6.74-7.47s6.69,2.69,6.69,7.47v15.15h5.83v-16.1c0-8.26-4.84-11.77-10.47-11.77m-33.1,23.09a8.9,8.9,0,0,1,0-17.79c4.48,0,8.53,3.26,8.53,8.9s-4.05,8.89-8.53,8.89m0,5.31c7.11,0,14.31-5,14.31-14.2s-7.2-14.2-14.31-14.2-14.3,5-14.3,14.2,7.2,14.2,14.3,14.2m-24.29-.53h5.78V881.58h-5.78Zm0-32.14h5.78v-5.2h-5.78Zm-4.48,9.47v-4.68h-5.53v-7h-5.83v7h-3.79v4.68h3.79v16c0,4.89,2.94,6.94,7.1,6.94a7,7,0,0,0,4.26-1.11v-4.57a7.35,7.35,0,0,1-2.53.47c-2.16,0-3-1.21-3-2.78v-15Zm-33.67,17.94c-4.37,0-8.63-3.05-8.63-9s4.26-9,8.63-9,8.68,3.05,8.68,9-4.26,9-8.68,9m-1.1,5.26c5,0,8.47-2.74,9.47-4.89h.16v4.36h5.78V881.58h-5.78v4.36h-.16c-1-2.15-4.47-4.88-9.47-4.88-6.48,0-13.26,4.78-13.26,14.2s6.78,14.2,13.26,14.2m-31-.53h5.42L1546,881.58h-6l-8.26,20.36-8.31-20.36h-5.94Zm-26.62-4.78a8.9,8.9,0,0,1,0-17.79c4.47,0,8.53,3.26,8.53,8.9s-4.06,8.89-8.53,8.89m0,5.31c7.11,0,14.3-5,14.3-14.2s-7.2-14.2-14.3-14.2-14.3,5-14.3,14.2,7.19,14.2,14.3,14.2m-29-28.4c-4.42,0-7.32,2.1-8.79,4.62v-4.1h-5.78v27.35h5.78V893.78c0-4.79,2.79-7.47,6.74-7.47s6.68,2.69,6.68,7.47v15.15h5.83v-16.1c0-8.26-4.83-11.77-10.46-11.77m-30.57,0c-4.42,0-7.32,2.1-8.79,4.62v-4.1h-5.78v27.35h5.78V893.78c0-4.79,2.79-7.47,6.74-7.47s6.69,2.69,6.69,7.47v15.15h5.83v-16.1c0-8.26-4.83-11.77-10.47-11.77m-26,27.87h5.94V871.58h-5.94Zm-25,.53c5.36,0,10-2.74,10-8.21,0-4.68-3.42-6.63-7.2-8l-2.69-1.05c-2.48-.9-3.37-2.1-3.37-3.52,0-1.79,1.47-3,3.58-3a4.25,4.25,0,0,1,4.21,3.16l4.57-1.21c-.94-4-4.36-6.57-9-6.57-4.94,0-9,2.89-9,7.52,0,3.21,1.89,6,6.41,7.74l3,1.1c2.63,1.06,3.79,2.11,3.79,3.84,0,2.42-2.1,3.53-4.26,3.53a5.14,5.14,0,0,1-5.16-4.16l-4.73,1.32c.84,4.83,4.68,7.51,10,7.51m-19.68-.53H1378V871.58h-5.78Zm-19.83-4.73c-4.37,0-8.63-3.05-8.63-9s4.26-9,8.63-9,8.68,3.05,8.68,9-4.26,9-8.68,9m-1.11,5.26c5,0,8.47-2.74,9.47-4.89h.16v4.36h5.78V881.58h-5.78v4.36h-.16c-1-2.15-4.47-4.88-9.47-4.88-6.48,0-13.26,4.78-13.26,14.2s6.79,14.2,13.26,14.2m-23.25-.53h5.78V881.58H1328Zm0-32.14h5.78v-5.2H1328Zm-5.9,4.27c-5,0-7.73,3.46-8.68,7.57v-7h-5.78v27.35h5.78V896.16c0-5.74,3.52-9.52,8.74-9.52a8.33,8.33,0,0,1,1.68.16v-5.51a5.3,5.3,0,0,0-1.74-.23m-32,4.93c3.89,0,7.68,2.42,8,7.16h-16.36a8.2,8.2,0,0,1,8.36-7.16m-.06-4.93c-6.94,0-13.73,5-13.73,14.2s6.73,14.2,14.15,14.2a13.87,13.87,0,0,0,10.94-4.83l-2.74-2.84a10.77,10.77,0,0,1-7.58,2.84c-4.68,0-8.42-2.42-9.31-7.17h21.46c1.33-11.47-6.24-16.4-13.19-16.4m-16.63,5.2v-4.68h-5.53v-7h-5.83v7h-3.79v4.68h3.79v16c0,4.89,3,6.94,7.1,6.94a7,7,0,0,0,4.26-1.11v-4.57a7.35,7.35,0,0,1-2.53.47c-2.16,0-3-1.21-3-2.78v-15Zm-33.67,17.94c-4.37,0-8.63-3.05-8.63-9s4.26-9,8.63-9,8.68,3.05,8.68,9-4.26,9-8.68,9m-1.1,5.26c5,0,8.47-2.74,9.48-4.89h.16v4.36h5.78V881.58h-5.78v4.36h-.16c-1-2.15-4.47-4.88-9.48-4.88-6.48,0-13.25,4.78-13.25,14.2s6.77,14.2,13.25,14.2m-57.14-.53h5.94V883.15h.26l11.42,25.78h4.42l11.47-25.78h.26v25.78h5.94V871.58h-6.57l-13.32,29.72-13.26-29.72h-6.57v37.35ZM1166.08,877v-5.41h-20.56v37.35h5.94V892.68h13.47v-5h-13.47V877Zm-37.24,32.46c6.26,0,12.47-3.68,12.47-10.94,0-5.47-3.52-8.36-9.89-10.89l-2.53-1c-4.21-1.68-5.58-3.42-5.58-5.68,0-2.89,2.42-4.52,5.48-4.52,3.21,0,5.47,1.73,7,4.89l4.47-2.42a12,12,0,0,0-11.68-7.83c-6.16,0-11.15,3.78-11.15,9.83,0,5.31,3.79,8.21,9.1,10.32l2.42.94c4,1.63,6.21,3.05,6.21,6.32,0,3.73-3,5.53-6.37,5.53a8.1,8.1,0,0,1-8-6l-4.83,2.21c1.31,5.4,6.41,9.19,12.83,9.19m-48.14-.53h5.94V881.42h.26l18.9,27.51h6V871.58h-5.94v27.51h-.26l-18.95-27.51h-5.94v37.35Z" transform="translate(-131.04 -364.73)"/><path class="cls-148" d="M1322.61,954.14h3.67l12-30.64H1319.9v3.23h13.55Zm-15.46-2.93a6.07,6.07,0,1,1,6.26-6,6,6,0,0,1-6.26,6m0-15.36a4.78,4.78,0,0,1-4.88-4.84,4.86,4.86,0,0,1,9.71,0,4.76,4.76,0,0,1-4.83,4.84m0,18.72c5.22,0,10-3.53,10-9.23a8.71,8.71,0,0,0-5.26-8.2,7.53,7.53,0,0,0,3.49-6.39c0-4.1-3.15-7.68-8.2-7.68s-8.2,3.58-8.2,7.68a7.52,7.52,0,0,0,3.45,6.39,8.73,8.73,0,0,0-5.26,8.2c0,5.7,4.74,9.23,10,9.23M1277,943.1l9.58-14.42V943.1Zm16.53,0h-3.24V923.5h-3.71l-13.34,19.6v3.23h13.34v7.81h3.71v-7.81h3.24Zm-34.83,11.47c5.91,0,10.74-3.79,10.74-9.93a8.94,8.94,0,0,0-8.41-9.31l7.3-11.83h-17.87v3.23H1263L1256.14,938c5.18-1.41,9.63,1.34,9.63,6.49,0,4.49-3.32,6.87-7.08,6.87a7.49,7.49,0,0,1-7.21-5l-2.76,1.64c1.28,3.76,5,6.6,10,6.6m-24.56,0c5.91,0,10.74-3.79,10.74-9.93a8.94,8.94,0,0,0-8.41-9.31l7.29-11.83h-17.87v3.23h12.48L1231.57,938c5.18-1.41,9.63,1.34,9.63,6.49,0,4.49-3.32,6.87-7.08,6.87a7.49,7.49,0,0,1-7.21-5l-2.76,1.64c1.29,3.76,5,6.6,10,6.6M1210.37,939a6.35,6.35,0,1,1,6.48-6.35,6.2,6.2,0,0,1-6.48,6.35m0-15.93c-5.44,0-10,3.79-10,9.71a9.05,9.05,0,0,0,9.32,9.36,8.25,8.25,0,0,0,3.63-.82l-9.19,12.82h4.14l7.43-10.4c1.76-2.42,4.61-6,4.61-10.79a9.54,9.54,0,0,0-9.93-9.88m-18.9,31.07h3.66V923.5h-8v3.4h4.36Zm-20.42-10.53h13.38v-3h-13.38ZM1149.72,927h5.74c4.32,0,7.08,2.2,7.08,6.52s-2.76,6.52-7.08,6.52h-5.74Zm17.74,27.19-7.64-11.44c4.1-1.29,6.51-4.66,6.51-9.23,0-5.83-4-10-10.45-10H1146v30.64h3.71V943.26h6.52l7.17,10.88Zm-58.61,0h3.71V930.87h.22l10.71,23.27h2.81L1137,930.87h.22v23.27h3.71V923.5h-4.14l-11.92,25.86L1113,923.5h-4.14v30.64Zm-24.79-3.53V927h5.35c7.3,0,11.36,4.71,11.36,11.79s-4.06,11.78-11.36,11.78Zm-3.7,3.53h9.19c9.07,0,15.07-6.21,15.07-15.32s-6-15.32-15.07-15.32h-9.19Z" transform="translate(-131.04 -364.73)"/></svg>